<svg width="16" height="14" viewBox="0 0 16 14" fill="currentColor" xmlns="http://www.w3.org/2000/svg">
<path fill-rule="evenodd" clip-rule="evenodd" d="M6 13C6 12.4477 6.44772 12 7 12H15C15.5523 12 16 12.4477 16 13C16 13.5523 15.5523 14 15 14H7C6.44772 14 6 13.5523 6 13Z"/>
<path fill-rule="evenodd" clip-rule="evenodd" d="M0 9C0 8.44772 0.397969 8 0.888889 8H15.1111C15.602 8 16 8.44772 16 9C16 9.55228 15.602 10 15.1111 10H0.888889C0.397969 10 0 9.55228 0 9Z"/>
<path fill-rule="evenodd" clip-rule="evenodd" d="M6 5C6 4.44772 6.44772 4 7 4H15C15.5523 4 16 4.44772 16 5C16 5.55228 15.5523 6 15 6H7C6.44772 6 6 5.55228 6 5Z"/>
<path fill-rule="evenodd" clip-rule="evenodd" d="M0 1C0 0.447715 0.397969 0 0.888889 0H15.1111C15.602 0 16 0.447715 16 1C16 1.55228 15.602 2 15.1111 2H0.888889C0.397969 2 0 1.55228 0 1Z"/>
</svg>
