<svg width="16" height="14" viewBox="0 0 16 14" fill="currentColor" xmlns="http://www.w3.org/2000/svg">
<path fill-rule="evenodd" clip-rule="evenodd" d="M0 13C0 12.4477 0.447715 12 1 12H9C9.55229 12 10 12.4477 10 13C10 13.5523 9.55229 14 9 14H1C0.447715 14 0 13.5523 0 13Z"/>
<path fill-rule="evenodd" clip-rule="evenodd" d="M0 9C0 8.44772 0.397969 8 0.888889 8H15.1111C15.602 8 16 8.44772 16 9C16 9.55228 15.602 10 15.1111 10H0.888889C0.397969 10 0 9.55228 0 9Z"/>
<path fill-rule="evenodd" clip-rule="evenodd" d="M0 5C0 4.44772 0.447715 4 1 4H9C9.55229 4 10 4.44772 10 5C10 5.55228 9.55229 6 9 6H1C0.447715 6 0 5.55228 0 5Z"/>
<path fill-rule="evenodd" clip-rule="evenodd" d="M0 1C0 0.447715 0.397969 0 0.888889 0H15.1111C15.602 0 16 0.447715 16 1C16 1.55228 15.602 2 15.1111 2H0.888889C0.397969 2 0 1.55228 0 1Z"/>
</svg>
