<svg width="16" height="14" viewBox="0 0 16 14" fill="currentColor" stroke="none" xmlns="http://www.w3.org/2000/svg">
<path fill-rule="evenodd" clip-rule="evenodd" d="M0 1.52926C0 0.807605 0.806937 6.10352e-05 1.5 6.10352e-05H14.5C15.1931 6.10352e-05 16 0.778348 16 1.5V12.5C16 13.2217 15.1931 14.0001 14.5 14.0001L1.5 14C0.806937 14 0 13.2217 0 12.5V1.52926ZM2 2.00006V12.0001H14V2.00006H2Z"/>
<path fill-rule="evenodd" clip-rule="evenodd" d="M11 0C11.6498 0 12 0.272452 12 0.77783L12 13.2222C12 13.7276 11.6498 14 11 14C10.3502 14 10 13.7276 10 13.2222L10 0.777813C10 0.272436 10.3502 0 11 0Z"/>
</svg>
