<svg width="16" height="16" viewBox="0 0 16 16" fill="currentColor" stroke="none" xmlns="http://www.w3.org/2000/svg">
<path fill-rule="evenodd" clip-rule="evenodd" d="M0 1.5C0 0.778348 0.806937 0 1.5 0H14.5C15.1931 0 16 0.778348 16 1.5V14.5001C16 15.2217 15.1931 16.0001 14.5 16.0001L1.5 16.0001C0.806937 16.0001 0 15.2217 0 14.5001V1.5ZM2 2V14.0001H14V2H2Z"/>
<path fill-rule="evenodd" clip-rule="evenodd" d="M11 1C11.6498 1 12 1.27245 12 1.77783L12 14.2222C12 14.7276 11.6498 15 11 15C10.3502 15 10 14.7276 10 14.2222L10 1.77781C10 1.27244 10.3502 1 11 1Z"/>
</svg>
