<svg  viewBox="0 0 15 16" fill="none" xmlns="http://www.w3.org/2000/svg">
<path d="M11.5019 5.20074C11.5019 4.08664 11.0593 3.01816 10.2715 2.23037C9.4837 1.44258 8.41522 1 7.30112 1C6.18701 1 5.11853 1.44258 4.33074 2.23037C3.54295 3.01816 3.10037 4.08664 3.10037 5.20074C3.10037 10.1016 1 11.5019 1 11.5019H13.6022C13.6022 11.5019 11.5019 10.1016 11.5019 5.20074Z" stroke="currentColor" stroke-width="2" stroke-linecap="round" stroke-linejoin="round"/>
<path d="M8.51233 14.3024C8.38924 14.5146 8.21257 14.6907 8 14.8131C7.78743 14.9356 7.54643 15 7.30112 15C7.05581 15 6.81481 14.9356 6.60224 14.8131C6.38967 14.6907 6.21299 14.5146 6.0899 14.3024" stroke="currentColor" stroke-width="2" stroke-linecap="round" stroke-linejoin="round"/>
</svg>
