<svg width="13" height="16" viewBox="0 0 13 16" fill="none" stroke="currentColor" xmlns="http://www.w3.org/2000/svg">
<path d="M1 1H7.76923C8.66689 1 9.52778 1.36875 10.1625 2.02513C10.7973 2.6815 11.1538 3.57174 11.1538 4.5C11.1538 5.42826 10.7973 6.3185 10.1625 6.97487C9.52778 7.63125 8.66689 8 7.76923 8H1V1Z" stroke-width="2" stroke-linecap="round" stroke-linejoin="round"/>
<path d="M1 8H8.61538C9.51304 8 10.3739 8.36875 11.0087 9.02513C11.6434 9.6815 12 10.5717 12 11.5C12 12.4283 11.6434 13.3185 11.0087 13.9749C10.3739 14.6313 9.51304 15 8.61538 15H1V8Z" stroke-width="2" stroke-linecap="round" stroke-linejoin="round"/>
</svg>