<svg width="16" height="16" viewBox="0 0 16 16" fill="currentColor" xmlns="http://www.w3.org/2000/svg">
<path fill-rule="evenodd" clip-rule="evenodd" d="M0 1C0 0.447715 0.447715 0 1 0H7C7.26522 0 7.51957 0.105357 7.70711 0.292893L10 2.58579L12.2929 0.292893C12.4804 0.105357 12.7348 0 13 0H15C15.5523 0 16 0.447715 16 1V9V12C16 12.5523 15.5523 13 15 13H9V15C9 15.5523 8.55229 16 8 16C7.44772 16 7 15.5523 7 15V13H1C0.447715 13 0 12.5523 0 12V1ZM14 8V2H13.4142L10.7071 4.70711C10.3166 5.09763 9.68342 5.09763 9.29289 4.70711L6.58579 2H2V8H14ZM2 10H14V11H8H2V10Z"/>
</svg>
