<svg viewBox="0 0 460 212" fill="none" xmlns="http://www.w3.org/2000/svg">
    <g filter="url(#filter0_i)">
        <g clip-path="url(#clip0)">
            <path d="M0 7.99999C0 3.58172 3.58172 0 8 0H452C456.418 0 460 3.58172 460 8V208C460 210.209 458.209 212 456 212H4C1.79087 212 0 210.209 0 208V7.99999Z" fill="#FBFBFB"/>
            <g filter="url(#filter1_d)">
                <path d="M139 239.438H945.101V248.001H139V239.438Z" fill="white" fill-opacity="0.95"/>
            </g>
            <path d="M157 65C157 47.3269 171.327 33 189 33H230V106H157V65Z" fill="#DBE3FF"/>
            <path d="M303 65C303 47.3269 288.673 33 271 33H230V106H303V65Z" fill="#FFDAE5"/>
            <path d="M303 147C303 164.673 288.673 179 271 179H230V106H303V147Z" fill="#F6DCFF"/>
            <path d="M157 147C157 164.673 171.327 179 189 179H230V106H157V147Z" fill="#D7F6FF"/>
            <path d="M185.766 68.5954C183.863 72.3189 182.449 76.2895 181.562 80.4015C181.489 80.8973 181.51 81.4034 181.625 81.8907C181.74 82.378 181.947 82.8371 182.233 83.2416C182.519 83.6462 182.879 83.9884 183.293 84.2485C183.707 84.5087 184.166 84.6818 184.645 84.758C186.172 85.0998 187.762 84.9774 189.223 84.4056C190.685 83.8337 191.956 82.8366 192.884 81.5342L197.423 76.3354C198.226 75.1969 198.668 73.8283 198.688 72.4185C198.708 71.0088 198.305 69.6273 197.536 68.4647C194.943 63.963 187.755 64.3986 185.766 68.5954Z" fill="#F4A28C"/>
            <path d="M194.07 77.0747L200.25 102.197L186.203 104.631L187.318 85.857L194.07 77.0747Z" fill="#F4A28C"/>
            <path d="M183.86 72.3511L180.551 74.4561C180.369 74.5814 180.22 74.7531 180.116 74.9556C180.013 75.1581 179.958 75.385 179.958 75.6155C179.958 75.846 180.013 76.0728 180.116 76.2753C180.22 76.4778 180.369 76.6495 180.551 76.7748L183.149 78.6496L183.86 72.3511Z" fill="#F4A28C"/>
            <path opacity="0.31" d="M187.456 84.5513C187.456 84.5513 192.368 83.441 194.006 81.7983C194.006 81.7983 193.546 93.6465 186.982 95.1827L187.456 84.5513Z" fill="#CE8172"/>
            <path d="M201.144 75.4384L198.918 77.8287C198.918 77.8287 195.383 84.4319 189.894 87.0165C184.404 89.601 177.861 87.3601 178.433 82.2807C179.065 76.4543 182.584 78.6802 187.773 79.5916C192.962 80.5029 193.714 73.4963 193.714 73.4963C192.76 73.2838 191.872 72.8436 191.128 72.2136C190.383 71.5836 189.805 70.783 189.442 69.8809L186.78 67.6997C186.174 67.2029 185.683 66.5815 185.341 65.8782C184.999 65.175 184.815 64.4066 184.801 63.6258C184.786 62.845 184.942 62.0705 185.258 61.3553C185.574 60.6402 186.042 60.0014 186.63 59.483C187.315 58.8103 188.128 58.2791 189.021 57.9201C189.914 57.5611 190.87 57.3815 191.834 57.3915C197.338 57.6604 208.002 68.4019 201.144 75.4384Z" fill="#484848"/>
            <path d="M196.358 75.7323C196.358 75.7323 200.961 74.6001 201.731 77.3299C202.501 80.0598 197.407 81.2297 194.786 79.1918C195.833 78.2207 196.391 76.9929 196.358 75.7323V75.7323Z" fill="#F4A28C"/>
            <path fill-rule="evenodd" clip-rule="evenodd" d="M210.736 106H173.67C176.632 101.346 182.077 97.0172 192.08 96.545C202.409 96.0575 207.86 100.77 210.736 106Z" fill="#2F78F0"/>
            <path d="M187.001 146.063C185.784 149.032 185.019 152.144 184.725 155.315C184.715 155.695 184.789 156.073 184.94 156.429C185.092 156.786 185.319 157.113 185.608 157.392C185.898 157.671 186.244 157.897 186.628 158.057C187.011 158.216 187.424 158.307 187.842 158.322C189.192 158.442 190.543 158.207 191.735 157.647C192.927 157.087 193.909 156.225 194.564 155.164L197.872 150.848C198.42 149.926 198.638 148.867 198.498 147.816C198.357 146.765 197.864 145.773 197.086 144.973C194.296 141.766 188.172 142.745 187.001 146.063Z" fill="#F4A28C"/>
            <path d="M196.184 152.559L198.91 171.808L188.148 174.155L190.57 158.651L196.184 152.559Z" fill="#F4A28C"/>
            <path d="M185.938 150.243L182.877 151.701C182.7 151.784 182.563 151.895 182.479 152.026C182.394 152.157 182.366 152.303 182.396 152.449C182.426 152.596 182.514 152.739 182.651 152.863C182.788 152.988 182.969 153.092 183.178 153.163L186.148 154.213L185.938 150.243Z" fill="#F4A28C"/>
            <path opacity="0.31" d="M190.537 159.189C190.537 159.189 194.609 157.842 195.878 156.409C195.878 156.409 194.854 164.469 189.395 166.308L190.537 159.189Z" fill="#CE8172"/>
            <path d="M200.119 149.866L198.688 151.864C198.688 151.864 196.626 157.145 192.6 159.631C188.574 162.116 183.368 160.986 183.288 157.12C183.203 152.68 186.137 154.03 190.224 154.214C194.31 154.399 194.21 149.097 194.21 149.097C193.453 149.027 192.723 148.778 192.086 148.372C191.449 147.966 190.923 147.416 190.556 146.769C189.575 145.193 188.184 143.891 186.523 142.995C183.066 141.176 187.909 137.038 187.909 137.038C185.585 135.509 187.736 132.984 190.156 132.384C192.576 131.785 192.98 134.488 194.689 135.216C196.398 135.945 195.972 133.096 199.335 134.106C202.698 135.115 200.597 137.382 202.528 139.387C202.528 139.387 205.075 137.868 206.511 142.022C207.341 144.408 206.698 145.42 205.587 145.909C203.434 146.74 201.549 148.104 200.119 149.866V149.866Z" fill="#DD674E"/>
            <path d="M196.171 150.471C196.171 150.471 199.619 149.279 200.652 151.447C201.684 153.616 197.83 154.854 195.446 153.362C196.124 152.513 196.381 151.488 196.171 150.471Z" fill="#F4A28C"/>
            <path fill-rule="evenodd" clip-rule="evenodd" d="M212.58 179C209.815 173.487 204.348 168.304 193.54 168.815C184.864 169.224 179.617 172.535 176.444 176.443C180.299 178.089 184.543 179 189 179H212.58Z" fill="#2F78F0"/>
            <path d="M258.258 70.8511C256.828 74.8652 255.951 79.0496 255.649 83.2915C255.648 84.3103 256.057 85.2865 256.785 86.0053C257.513 86.7241 258.501 87.1266 259.531 87.1244C261.177 87.2232 262.819 86.8477 264.257 86.0434C265.695 85.2391 266.867 84.0405 267.632 82.5929L271.541 76.702C272.202 75.4427 272.451 74.0126 272.255 72.6097C272.058 71.2067 271.425 69.9004 270.443 68.8715C267.013 64.7789 259.603 66.3912 258.258 70.8511Z" fill="#F4A28C"/>
            <path d="M268.904 74.9683L273.447 99.5986L260.052 101.098L262.128 82.5753L268.904 74.9683Z" fill="#F4A28C"/>
            <path d="M257.087 75.3296L254.148 77.7372C253.98 77.8737 253.851 78.05 253.772 78.2494C253.693 78.4488 253.667 78.6646 253.697 78.8761C253.726 79.0877 253.811 79.2881 253.941 79.4581C254.072 79.6281 254.245 79.762 254.444 79.8472L257.252 81.1373L257.087 75.3296Z" fill="#F4A28C"/>
            <path opacity="0.31" d="M261.5 86.564C263.26 86.0832 264.841 85.1192 266.048 83.791C266.048 83.791 265.931 88.2874 260.852 92.9417L261.5 86.564Z" fill="#CE8172"/>
            <path d="M270.238 81.2488C270.238 81.2488 274.493 81.1954 276.72 74.5042C278.947 67.8131 273.358 67.0433 273.358 67.0433C273.358 67.0433 272.137 60.0965 265.511 59.9697C258.885 59.8429 252.54 71.198 262.717 72.4255C270.403 73.2785 260.598 76.9149 270.238 81.2488Z" fill="#24285B"/>
            <path d="M282.67 77.5745C279.16 78.0664 275.917 75.6205 275.425 72.1113C274.933 68.6021 277.379 65.3586 280.888 64.8667C284.397 64.3748 287.641 66.8208 288.133 70.33C288.625 73.8392 286.179 77.0827 282.67 77.5745Z" fill="#24285B"/>
            <path d="M276.505 75.1991C276.505 75.1991 278.825 74.8738 278.538 71.2993C278.25 67.7247 275.525 68.2101 275.525 68.2101C275.525 68.2101 277.655 70.4935 276.505 75.1991Z" fill="#FFD200"/>
            <path fill-rule="evenodd" clip-rule="evenodd" d="M284.775 106C281.799 101.07 276.386 96.8098 266.54 97.2745C257.061 97.7219 251.675 101.632 248.616 106H284.775Z" fill="#2F78F0"/>
            <path d="M259.47 142.65C259.47 142.65 257.988 149.068 258.633 153.509C258.696 153.939 258.853 154.354 259.095 154.73C259.337 155.106 259.66 155.435 260.044 155.698C260.429 155.961 260.867 156.153 261.334 156.263C261.802 156.373 262.289 156.399 262.767 156.339C265.25 156.019 268.51 154.927 269.77 151.578L272.689 146.119C272.689 146.119 274.379 142.643 270.644 139.567C266.91 136.491 260.159 138.695 259.47 142.65Z" fill="#F4A28C"/>
            <path d="M272.126 146.88L273.07 169.51L259.93 169.11L264.524 152.802L272.126 146.88Z" fill="#F4A28C"/>
            <path d="M261.525 142.925C263.676 143.279 265.859 143.374 268.031 143.208C267.294 144.121 266.83 145.239 266.695 146.424C266.56 147.609 266.761 148.809 267.273 149.876C267.748 150.921 268.558 151.762 269.562 152.252C270.567 152.742 271.704 152.851 272.778 152.561L273.729 143.178C273.911 141.84 273.741 140.475 273.237 139.23C272.734 137.985 271.915 136.906 270.869 136.108C269.967 135.415 269.024 134.782 268.045 134.214C265.579 132.811 261.611 134.139 259.466 132.036C259.253 131.825 258.992 131.675 258.707 131.602C258.422 131.528 258.124 131.533 257.841 131.616C257.559 131.698 257.302 131.856 257.095 132.074C256.889 132.291 256.74 132.561 256.663 132.856C255.948 135.653 255.913 140.203 259.43 142.216C260.086 142.572 260.794 142.812 261.525 142.925Z" fill="#854C1D"/>
            <path d="M266.5 149.148C266.5 149.148 266.879 146.484 268.92 146.93C270.96 147.377 270.428 151.224 267.586 151.26L266.5 149.148Z" fill="#F4A28C"/>
            <path d="M259.025 146.15L256.595 148.956C256.459 149.116 256.362 149.309 256.314 149.519C256.266 149.729 256.268 149.949 256.321 150.158C256.374 150.367 256.475 150.558 256.615 150.714C256.756 150.87 256.931 150.987 257.124 151.052L259.93 151.99L259.025 146.15Z" fill="#F4A28C"/>
            <path opacity="0.31" d="M263.546 156.747C265.178 156.548 266.713 155.91 267.96 154.91C267.96 154.91 267.236 158.833 262.12 162.21L263.546 156.747Z" fill="#CE8172"/>
            <path fill-rule="evenodd" clip-rule="evenodd" d="M286.993 174.723C282.288 177.443 276.826 179 271 179H243.053C247.563 172.959 254.893 168.05 266.806 168.05C275.973 168.05 282.436 170.818 286.993 174.723Z" fill="#2F78F0"/>
        </g>
    </g>
    <defs>
        <filter id="filter0_i" x="0" y="-4" width="460" height="216" filterUnits="userSpaceOnUse" color-interpolation-filters="sRGB">
            <feFlood flood-opacity="0" result="BackgroundImageFix"/>
            <feBlend mode="normal" in="SourceGraphic" in2="BackgroundImageFix" result="shape"/>
            <feColorMatrix in="SourceAlpha" type="matrix" values="0 0 0 0 0 0 0 0 0 0 0 0 0 0 0 0 0 0 127 0" result="hardAlpha"/>
            <feOffset dy="-4"/>
            <feGaussianBlur stdDeviation="10"/>
            <feComposite in2="hardAlpha" operator="arithmetic" k2="-1" k3="1"/>
            <feColorMatrix type="matrix" values="0 0 0 0 0 0 0 0 0 0 0 0 0 0 0 0 0 0 0.02 0"/>
            <feBlend mode="normal" in2="shape" result="effect1_innerShadow"/>
        </filter>
        <filter id="filter1_d" x="67" y="190.438" width="938.101" height="140.563" filterUnits="userSpaceOnUse" color-interpolation-filters="sRGB">
            <feFlood flood-opacity="0" result="BackgroundImageFix"/>
            <feColorMatrix in="SourceAlpha" type="matrix" values="0 0 0 0 0 0 0 0 0 0 0 0 0 0 0 0 0 0 127 0"/>
            <feOffset dx="-6" dy="17"/>
            <feGaussianBlur stdDeviation="33"/>
            <feColorMatrix type="matrix" values="0 0 0 0 0 0 0 0 0 0 0 0 0 0 0 0 0 0 0.12 0"/>
            <feBlend mode="normal" in2="BackgroundImageFix" result="effect1_dropShadow"/>
            <feBlend mode="normal" in="SourceGraphic" in2="effect1_dropShadow" result="shape"/>
        </filter>
        <clipPath id="clip0">
            <path d="M0 7.99999C0 3.58172 3.58172 0 8 0H452C456.418 0 460 3.58172 460 8V208C460 210.209 458.209 212 456 212H4C1.79087 212 0 210.209 0 208V7.99999Z" fill="white"/>
        </clipPath>
    </defs>
</svg>