<svg viewBox="0 0 460 212" fill="none" xmlns="http://www.w3.org/2000/svg">
    <g filter="url(#filter0_i)">
        <g clip-path="url(#clip0)">
            <path d="M0 7.99999C0 3.58172 3.58172 0 8 0H452C456.418 0 460 3.58172 460 8V208C460 210.209 458.209 212 456 212H4C1.79087 212 0 210.209 0 208V7.99999Z" fill="#FBFBFB"/>
            <g filter="url(#filter1_d)">
                <path d="M56 154C56 147.373 61.3726 142 68 142H460V212H56V154Z" fill="white" fill-opacity="0.95"/>
            </g>
            <rect x="139" y="149" width="794" height="34" rx="8" fill="#F6F6F6"/>
            <circle cx="80" cy="166" r="4" fill="#FF5651"/>
            <circle cx="96" cy="166" r="4" fill="#FFBF3A"/>
            <circle cx="112" cy="166" r="4" fill="#00C74D"/>
            <path d="M156.576 165.576C156.341 165.81 156.341 166.19 156.576 166.424L160.394 170.243C160.628 170.477 161.008 170.477 161.243 170.243C161.477 170.008 161.477 169.628 161.243 169.394L157.849 166L161.243 162.606C161.477 162.372 161.477 161.992 161.243 161.757C161.008 161.523 160.628 161.523 160.394 161.757L156.576 165.576ZM167 165.4H157V166.6H167V165.4Z" fill="#9E9E9F"/>
            <path d="M189.424 166.424C189.659 166.19 189.659 165.81 189.424 165.576L185.606 161.757C185.372 161.523 184.992 161.523 184.757 161.757C184.523 161.992 184.523 162.372 184.757 162.606L188.151 166L184.757 169.394C184.523 169.628 184.523 170.008 184.757 170.243C184.992 170.477 185.372 170.477 185.606 170.243L189.424 166.424ZM179 166.6L189 166.6L189 165.4L179 165.4L179 166.6Z" fill="#9E9E9F"/>
            <rect x="204" y="153" width="770" height="26" rx="13" fill="#E7E7E7"/>
            <g filter="url(#filter2_d)">
                <rect x="211" y="146" width="770" height="26" rx="13" fill="white"/>
                <rect x="211.5" y="146.5" width="769" height="25" rx="12.5" stroke="#EAEAEA"/>
            </g>
            <path d="M223.879 163V155H225.086V158.477H229.074V155H230.285V163H229.074V159.512H225.086V163H223.879Z" fill="#2B87F3"/>
            <path d="M235.949 162.738C235.525 162.993 235.034 163.121 234.477 163.121C233.919 163.121 233.428 162.993 233.004 162.738C232.579 162.48 232.253 162.117 232.023 161.648C231.794 161.18 231.68 160.639 231.68 160.027C231.68 159.092 231.935 158.341 232.445 157.773C232.956 157.206 233.633 156.922 234.477 156.922C235.32 156.922 235.997 157.206 236.508 157.773C237.018 158.341 237.273 159.092 237.273 160.027C237.273 160.639 237.159 161.18 236.93 161.648C236.701 162.117 236.374 162.48 235.949 162.738ZM234.48 162.141C234.746 162.141 234.983 162.085 235.191 161.973C235.402 161.861 235.572 161.707 235.699 161.512C235.829 161.316 235.927 161.094 235.992 160.844C236.06 160.591 236.094 160.318 236.094 160.023C236.094 159.732 236.06 159.46 235.992 159.207C235.927 158.954 235.829 158.73 235.699 158.535C235.572 158.337 235.402 158.182 235.191 158.07C234.983 157.956 234.746 157.898 234.48 157.898C234.212 157.898 233.973 157.956 233.762 158.07C233.553 158.182 233.384 158.337 233.254 158.535C233.124 158.73 233.025 158.954 232.957 159.207C232.892 159.46 232.859 159.732 232.859 160.023C232.859 160.318 232.892 160.591 232.957 160.844C233.025 161.094 233.124 161.316 233.254 161.512C233.384 161.707 233.553 161.861 233.762 161.973C233.973 162.085 234.212 162.141 234.48 162.141Z" fill="#2B87F3"/>
            <path d="M238.577 163V157H241.065C241.743 157 242.279 157.145 242.675 157.434C243.071 157.72 243.269 158.109 243.269 158.602C243.269 158.943 243.159 159.219 242.94 159.43C242.724 159.638 242.425 159.779 242.042 159.852C242.464 159.901 242.817 160.063 243.101 160.336C243.384 160.607 243.526 160.956 243.526 161.383C243.526 161.867 243.34 162.258 242.968 162.555C242.598 162.852 242.09 163 241.444 163H238.577ZM239.675 162.023H241.444C241.733 162.023 241.96 161.956 242.124 161.82C242.288 161.682 242.37 161.493 242.37 161.254C242.37 160.975 242.288 160.757 242.124 160.598C241.96 160.436 241.733 160.355 241.444 160.355H239.675V162.023ZM239.675 159.5H241.077C241.405 159.5 241.663 159.431 241.851 159.293C242.038 159.155 242.132 158.966 242.132 158.727C242.132 158.497 242.037 158.318 241.847 158.188C241.659 158.055 241.399 157.988 241.065 157.988H239.675V159.5Z" fill="#2B87F3"/>
            <path d="M245.952 159.063H247.429C248.15 159.063 248.711 159.242 249.112 159.602C249.516 159.958 249.718 160.431 249.718 161.02C249.718 161.6 249.515 162.076 249.108 162.445C248.705 162.815 248.145 163 247.429 163H244.808V157H245.952V159.063ZM250.569 163V157H251.737V163H250.569ZM245.952 160.07V161.992H247.429C247.765 161.992 248.041 161.905 248.257 161.73C248.473 161.553 248.581 161.328 248.581 161.055C248.581 160.766 248.473 160.53 248.257 160.348C248.041 160.163 247.765 160.07 247.429 160.07H245.952Z" fill="#2B87F3"/>
            <path d="M254.449 161.363L257.094 157H258.352V163H257.207V158.633L254.574 163H253.305V157H254.449V161.363ZM256.594 154.969H257.555C257.555 155.411 257.398 155.77 257.086 156.043C256.773 156.316 256.354 156.453 255.828 156.453C255.307 156.453 254.891 156.316 254.578 156.043C254.266 155.77 254.109 155.411 254.109 154.969H255.066C255.066 155.185 255.128 155.363 255.25 155.504C255.375 155.642 255.568 155.711 255.828 155.711C256.086 155.711 256.277 155.641 256.402 155.5C256.53 155.359 256.594 155.182 256.594 154.969Z" fill="#2B87F3"/>
            <path d="M262.247 164.73V161.988H262.735C262.975 161.772 263.152 161.457 263.267 161.043C263.384 160.626 263.475 160.025 263.54 159.238L263.728 157H267.806V161.988H268.728V164.73H267.587V163H263.403V164.73H262.247ZM263.985 161.988H266.665V158H264.774L264.649 159.238C264.584 159.944 264.504 160.514 264.407 160.949C264.311 161.382 264.17 161.728 263.985 161.988Z" fill="#2B87F3"/>
            <path d="M273.869 162.738C273.445 162.993 272.954 163.121 272.396 163.121C271.839 163.121 271.348 162.993 270.924 162.738C270.499 162.48 270.173 162.117 269.943 161.648C269.714 161.18 269.6 160.639 269.6 160.027C269.6 159.092 269.855 158.341 270.365 157.773C270.876 157.206 271.553 156.922 272.396 156.922C273.24 156.922 273.917 157.206 274.428 157.773C274.938 158.341 275.193 159.092 275.193 160.027C275.193 160.639 275.079 161.18 274.85 161.648C274.62 162.117 274.294 162.48 273.869 162.738ZM272.4 162.141C272.666 162.141 272.903 162.085 273.111 161.973C273.322 161.861 273.492 161.707 273.619 161.512C273.749 161.316 273.847 161.094 273.912 160.844C273.98 160.591 274.014 160.318 274.014 160.023C274.014 159.732 273.98 159.46 273.912 159.207C273.847 158.954 273.749 158.73 273.619 158.535C273.492 158.337 273.322 158.182 273.111 158.07C272.903 157.956 272.666 157.898 272.4 157.898C272.132 157.898 271.893 157.956 271.682 158.07C271.473 158.182 271.304 158.337 271.174 158.535C271.044 158.73 270.945 158.954 270.877 159.207C270.812 159.46 270.779 159.732 270.779 160.023C270.779 160.318 270.812 160.591 270.877 160.844C270.945 161.094 271.044 161.316 271.174 161.512C271.304 161.707 271.473 161.861 271.682 161.973C271.893 162.085 272.132 162.141 272.4 162.141Z" fill="#2B87F3"/>
            <path d="M279.864 161.555L281.802 157H283.255V163H282.118V158.652L280.298 163H279.431L277.642 158.637V163H276.497V157H277.966L279.864 161.555Z" fill="#2B87F3"/>
            <path d="M287.397 163.121C286.814 163.121 286.306 162.995 285.874 162.742C285.442 162.487 285.111 162.128 284.882 161.664C284.655 161.198 284.542 160.656 284.542 160.039C284.542 159.583 284.608 159.163 284.741 158.777C284.874 158.389 285.06 158.06 285.3 157.789C285.539 157.516 285.832 157.303 286.179 157.152C286.525 156.999 286.904 156.922 287.315 156.922C287.594 156.922 287.86 156.957 288.112 157.027C288.368 157.095 288.608 157.207 288.835 157.363C289.064 157.517 289.262 157.708 289.429 157.938C289.595 158.167 289.727 158.452 289.823 158.793C289.922 159.134 289.972 159.516 289.972 159.938V160.352H285.706C285.722 160.922 285.882 161.366 286.187 161.684C286.494 161.999 286.901 162.156 287.409 162.156C287.745 162.156 288.033 162.083 288.272 161.938C288.515 161.792 288.688 161.579 288.792 161.301L289.897 161.5C289.762 161.995 289.473 162.389 289.03 162.684C288.588 162.975 288.043 163.121 287.397 163.121ZM285.71 159.477H288.827C288.825 159.013 288.685 158.633 288.409 158.336C288.133 158.036 287.771 157.887 287.323 157.887C286.865 157.887 286.487 158.042 286.19 158.352C285.894 158.659 285.733 159.034 285.71 159.477Z" fill="#2B87F3"/>
            <path d="M292.412 157V159.496H295.01V157H296.15V163H295.01V160.508H292.412V163H291.268V157H292.412Z" fill="#2B87F3"/>
            <path d="M298.482 163.074C298.266 163.074 298.081 162.999 297.928 162.848C297.777 162.694 297.701 162.509 297.701 162.293C297.701 162.079 297.778 161.897 297.932 161.746C298.085 161.592 298.269 161.516 298.482 161.516C298.696 161.516 298.88 161.592 299.033 161.746C299.187 161.897 299.264 162.079 299.264 162.293C299.264 162.509 299.187 162.694 299.033 162.848C298.88 162.999 298.696 163.074 298.482 163.074Z" fill="#2B87F3"/>
            <path d="M300.938 163V157H302.067V157.953H302.13C302.239 157.633 302.432 157.379 302.708 157.191C302.984 157.004 303.299 156.91 303.653 156.91C303.846 156.91 304.011 156.919 304.149 156.938V158.055C303.988 158.008 303.784 157.984 303.54 157.984C303.126 157.984 302.783 158.112 302.512 158.367C302.242 158.62 302.106 158.943 302.106 159.336V163H300.938Z" fill="#2B87F3"/>
            <path d="M309.071 160.512V157H310.242V163H309.094V161.961H309.032C308.886 162.297 308.658 162.568 308.348 162.773C308.041 162.977 307.671 163.078 307.239 163.078C306.645 163.078 306.168 162.883 305.809 162.492C305.449 162.099 305.27 161.54 305.27 160.816V157H306.438V160.676C306.438 161.082 306.55 161.408 306.774 161.652C307 161.895 307.296 162.016 307.66 162.016C307.83 162.016 307.996 161.984 308.16 161.922C308.324 161.859 308.476 161.768 308.614 161.648C308.752 161.529 308.862 161.371 308.946 161.176C309.029 160.978 309.071 160.757 309.071 160.512Z" fill="#2B87F3"/>
        </g>
    </g>
    <defs>
        <filter id="filter0_i" x="0" y="-4" width="460" height="216" filterUnits="userSpaceOnUse" color-interpolation-filters="sRGB">
            <feFlood flood-opacity="0" result="BackgroundImageFix"/>
            <feBlend mode="normal" in="SourceGraphic" in2="BackgroundImageFix" result="shape"/>
            <feColorMatrix in="SourceAlpha" type="matrix" values="0 0 0 0 0 0 0 0 0 0 0 0 0 0 0 0 0 0 127 0" result="hardAlpha"/>
            <feOffset dy="-4"/>
            <feGaussianBlur stdDeviation="10"/>
            <feComposite in2="hardAlpha" operator="arithmetic" k2="-1" k3="1"/>
            <feColorMatrix type="matrix" values="0 0 0 0 0 0 0 0 0 0 0 0 0 0 0 0 0 0 0.02 0"/>
            <feBlend mode="normal" in2="shape" result="effect1_innerShadow"/>
        </filter>
        <filter id="filter1_d" x="-16" y="93" width="536" height="202" filterUnits="userSpaceOnUse" color-interpolation-filters="sRGB">
            <feFlood flood-opacity="0" result="BackgroundImageFix"/>
            <feColorMatrix in="SourceAlpha" type="matrix" values="0 0 0 0 0 0 0 0 0 0 0 0 0 0 0 0 0 0 127 0"/>
            <feOffset dx="-6" dy="17"/>
            <feGaussianBlur stdDeviation="33"/>
            <feColorMatrix type="matrix" values="0 0 0 0 0 0 0 0 0 0 0 0 0 0 0 0 0 0 0.12 0"/>
            <feBlend mode="normal" in2="BackgroundImageFix" result="effect1_dropShadow"/>
            <feBlend mode="normal" in="SourceGraphic" in2="effect1_dropShadow" result="shape"/>
        </filter>
        <filter id="filter2_d" x="197" y="140" width="790" height="46" filterUnits="userSpaceOnUse" color-interpolation-filters="sRGB">
            <feFlood flood-opacity="0" result="BackgroundImageFix"/>
            <feColorMatrix in="SourceAlpha" type="matrix" values="0 0 0 0 0 0 0 0 0 0 0 0 0 0 0 0 0 0 127 0"/>
            <feOffset dx="-4" dy="4"/>
            <feGaussianBlur stdDeviation="5"/>
            <feColorMatrix type="matrix" values="0 0 0 0 0 0 0 0 0 0 0 0 0 0 0 0 0 0 0.07 0"/>
            <feBlend mode="normal" in2="BackgroundImageFix" result="effect1_dropShadow"/>
            <feBlend mode="normal" in="SourceGraphic" in2="effect1_dropShadow" result="shape"/>
        </filter>
        <clipPath id="clip0">
            <path d="M0 7.99999C0 3.58172 3.58172 0 8 0H452C456.418 0 460 3.58172 460 8V208C460 210.209 458.209 212 456 212H4C1.79087 212 0 210.209 0 208V7.99999Z" fill="white"/>
        </clipPath>
    </defs>
</svg>