<svg width="6" height="10" viewBox="0 0 6 10" fill="none" stroke="currentColor" xmlns="http://www.w3.org/2000/svg">
<path d="M0.913893 9.43227L0.9138 9.43235C0.818863 9.52259 0.655079 9.52248 0.560399 9.43244L0.560223 9.43227C0.479918 9.35598 0.479938 9.24327 0.560209 9.16701L0.560218 9.16701L4.5649 5.36242L4.94646 4.99993L4.5649 4.63743L0.560413 0.833058C0.560395 0.83304 0.560377 0.833023 0.560359 0.833006C0.479976 0.756556 0.480102 0.643861 0.56034 0.56763L0.560413 0.56756C0.655151 0.477517 0.819052 0.47742 0.914004 0.56763L0.914007 0.567633L5.43977 4.86732C5.4398 4.86735 5.43983 4.86738 5.43986 4.86741C5.48329 4.90873 5.5 4.95628 5.5 4.99991C5.5 5.04355 5.4832 5.09127 5.43971 5.13259L0.913893 9.43227Z"/>
</svg>
