<svg width="20" height="16" viewBox="0 0 20 16" fill="currentColor" stroke="none" xmlns="http://www.w3.org/2000/svg">
<path fill-rule="evenodd" clip-rule="evenodd" d="M17.0016 10.9998L17 10.9998L16.9984 10.9998C16.4469 10.9989 16 10.5515 16 9.99978C16 9.4475 16.4477 8.99978 17 8.99978C17.5523 8.99978 18 9.4475 18 9.99978C18 10.5515 17.5531 10.9989 17.0016 10.9998ZM16 12.8291V15C16 15.5523 16.4477 16 17 16C17.5523 16 18 15.5523 18 15L18 12.8291C19.1652 12.4172 20 11.306 20 9.99978C20 8.68845 19.1586 7.57362 17.9863 7.16568C17.9953 7.11172 18 7.05629 18 6.99977L18 0.99977C18 0.447486 17.5523 -0.000228882 17 -0.000228882C16.4477 -0.000228882 16 0.447486 16 0.99977V6.99977C16 7.05629 16.0047 7.11172 16.0137 7.16568C14.8414 7.57362 14 8.68845 14 9.99978C14 11.306 14.8348 12.4172 16 12.8291ZM10.0001 15.9998C9.44777 15.9998 8.96538 15.5521 8.96538 14.9998L8.96538 7.81682C7.81831 7.39537 7 6.29325 7 5C7 3.68868 7.84134 2.57387 9.01367 2.16591C9.00461 2.1118 8.99989 2.05622 8.99989 1.99954V0.999804C8.99989 0.44752 9.4476 -0.00019455 9.99989 -0.00019455C10.5522 -0.00019455 10.9999 0.44752 10.9999 0.999804V1.99954C10.9999 2.0562 10.9952 2.11175 10.9861 2.16584C12.1586 2.57373 13 3.6886 13 5C13 6.31644 12.1521 7.43484 10.9726 7.83883L10.9654 14.9998C10.9654 15.5521 10.5523 15.9998 10.0001 15.9998ZM9 5C9 4.44772 9.44772 4 10 4C10.5523 4 11 4.44772 11 5C11 5.55229 10.5523 6 10 6C9.44772 6 9 5.55229 9 5ZM3 -0.000228882C3.55228 -0.000228882 4 0.447486 4 0.99977V6.17049C5.16519 6.58232 6 7.69356 6 8.99978C6 10.3111 5.15864 11.4259 3.9863 11.8339C3.99531 11.8878 4 11.9432 4 11.9998V14.9998C4 15.552 3.55228 15.9998 3 15.9998C2.44772 15.9998 2 15.552 2 14.9998V11.9998C2 11.9432 2.00469 11.8878 2.0137 11.8339C0.841356 11.4259 0 10.3111 0 8.99978C0 7.69356 0.834808 6.58232 2 6.17049L2 0.99977C2 0.447486 2.44772 -0.000228882 3 -0.000228882ZM4 8.99978C4 9.55207 3.55228 9.99978 3 9.99978C2.44772 9.99978 2 9.55207 2 8.99978C2 8.4475 2.44772 7.99978 3 7.99978C3.55228 7.99978 4 8.4475 4 8.99978Z"/>
</svg>
