<svg width="12" height="12" viewBox="0 0 12 12" fill="currentColor" stroke="none" xmlns="http://www.w3.org/2000/svg">
<path fill-rule="evenodd" clip-rule="evenodd" d="M11.7046 1.72152C12.0985 1.3277 12.0985 0.689187 11.7046 0.295366C11.3108 -0.0984553 10.6723 -0.0984553 10.2785 0.295366L5.99999 4.57387L1.72152 0.295395C1.3277 -0.0984265 0.689186 -0.0984262 0.295366 0.295395C-0.098455 0.689216 -0.0984553 1.32773 0.295366 1.72155L4.57384 6.00003L0.295438 10.2784C-0.0983826 10.6723 -0.0983823 11.3108 0.295438 11.7046C0.689259 12.0984 1.32777 12.0984 1.72159 11.7046L5.99999 7.42618L10.2784 11.7046C10.6722 12.0984 11.3108 12.0984 11.7046 11.7046C12.0984 11.3108 12.0984 10.6723 11.7046 10.2785L7.42614 6.00003L11.7046 1.72152Z"/>
</svg>
