<svg width="14" height="14" viewBox="0 0 14 14" fill="currentColor" stroke="none" xmlns="http://www.w3.org/2000/svg">
<path fill-rule="evenodd" clip-rule="evenodd" d="M13.6554 2.00844C14.1149 1.54898 14.1149 0.804052 13.6554 0.344593C13.196 -0.114864 12.451 -0.114864 11.9916 0.344593L7 5.33618L2.00844 0.344609C1.54898 -0.114849 0.804051 -0.114849 0.344593 0.344609C-0.114864 0.804067 -0.114865 1.549 0.344593 2.00845L5.33616 7.00003L0.344686 11.9915C-0.114772 12.451 -0.114772 13.1959 0.344686 13.6553C0.804143 14.1148 1.54907 14.1148 2.00853 13.6553L7 8.66387L11.9915 13.6554C12.4509 14.1148 13.1959 14.1148 13.6553 13.6554C14.1148 13.1959 14.1148 12.451 13.6553 11.9915L8.66384 7.00003L13.6554 2.00844Z"/>
</svg>
