<svg width="16" height="16" viewBox="0 0 16 16" fill="currentColor" stroke="none" xmlns="http://www.w3.org/2000/svg">
<path fill-rule="evenodd" clip-rule="evenodd" d="M8 0C8.55228 0 9 0.447715 9 1V15C9 15.5523 8.55228 16 8 16C7.44772 16 7 15.5523 7 15V1C7 0.447715 7.44772 0 8 0Z"/>
<path fill-rule="evenodd" clip-rule="evenodd" d="M16 1C16 1.55228 15.5523 2 15 2L1 2C0.447715 2 -6.78525e-08 1.55228 -4.37114e-08 0.999999C-1.95703e-08 0.447715 0.447715 -6.79812e-07 1 -6.55671e-07L15 -4.37114e-08C15.5523 -1.95703e-08 16 0.447715 16 1Z"/>
<path fill-rule="evenodd" clip-rule="evenodd" d="M15.7071 15.7071C15.3166 16.0976 14.6834 16.0976 14.2929 15.7071L10.2929 11.7071C9.90237 11.3166 9.90237 10.6834 10.2929 10.2929C10.6834 9.90237 11.3166 9.90237 11.7071 10.2929L15.7071 14.2929C16.0976 14.6834 16.0976 15.3166 15.7071 15.7071Z"/>
<path fill-rule="evenodd" clip-rule="evenodd" d="M10.2929 15.7071C9.90237 15.3166 9.90237 14.6834 10.2929 14.2929L14.2929 10.2929C14.6834 9.90237 15.3166 9.90237 15.7071 10.2929C16.0976 10.6834 16.0976 11.3166 15.7071 11.7071L11.7071 15.7071C11.3166 16.0976 10.6834 16.0976 10.2929 15.7071Z"/>
</svg>
