<svg width="41" height="20" viewBox="0 0 41 20" fill="currentColor" xmlns="http://www.w3.org/2000/svg">
<path d="M0.468506 17.068C0.468506 16.1902 0.682319 15.5713 1.10994 15.2112C1.56008 14.8511 2.11149 14.671 2.76419 14.671C3.39436 14.671 3.93452 14.8511 4.38466 15.2112C4.8573 15.5713 5.09362 16.1902 5.09362 17.068C5.09362 17.9457 4.8573 18.5759 4.38466 18.9585C3.93452 19.3411 3.39436 19.5324 2.76419 19.5324C2.11149 19.5324 1.56008 19.3411 1.10994 18.9585C0.682319 18.5759 0.468506 17.9457 0.468506 17.068ZM19.1862 0.525635C19.5013 0.525635 19.8389 0.548141 20.199 0.593152C20.5817 0.61566 20.908 0.64942 21.1781 0.694434L20.8067 4.03666C20.2215 3.87912 19.6139 3.80034 18.9837 3.80034C18.0834 3.80034 17.2282 4.0254 16.4179 4.47554C15.6302 4.92568 14.9888 5.57835 14.4936 6.43361C14.021 7.26635 13.7847 8.27914 13.7847 9.472V19.0598H10.2061V0.863233H13.0419L13.5146 4.10418H13.6496C14.2348 3.13641 14.9888 2.30365 15.9115 1.60595C16.8343 0.885739 17.9259 0.525635 19.1862 0.525635ZM40.212 0.863233V19.0598H37.3424L36.836 16.6628H36.6672C36.082 17.6081 35.2717 18.3058 34.2365 18.756C33.2013 19.1836 32.1096 19.3974 30.9618 19.3974C28.8236 19.3974 27.192 18.8685 26.0666 17.8107C24.9412 16.7529 24.3786 15.0761 24.3786 12.7805V0.863233H27.9909V12.2403C27.9909 15.0536 29.2176 16.4603 31.6708 16.4603C33.5389 16.4603 34.8329 15.9089 35.5531 14.8061C36.2734 13.7032 36.6335 12.1278 36.6335 10.0797V0.863233H40.212Z"/>
</svg>
