<svg width="162" height="162" viewBox="0 0 162 162" fill="none" xmlns="http://www.w3.org/2000/svg">
    <g clip-path="url(#clip0)">
        <g filter="url(#filter0_d)">
            <path fill-rule="evenodd" clip-rule="evenodd" d="M51.5801 45H10.0002C7.79111 45 6.00024 46.7909 6.00024 49V139C6.00024 141.209 7.79111 143 10.0002 143H51.5801C51.7595 143 51.9361 142.988 52.1093 142.965C52.2825 142.988 52.4592 143 52.6386 143H120C122.209 143 124 141.209 124 139V136.22C124 134.011 124 131 124 131V45H56C56 45 53.7892 45 51.5801 45Z" fill="white"/>
        </g>
        <path fill-rule="evenodd" clip-rule="evenodd" d="M52.1093 142.461L52.0437 142.47C51.8923 142.49 51.7375 142.5 51.5801 142.5H10.0002C8.06725 142.5 6.50024 140.933 6.50024 139V49C6.50024 47.067 8.06701 45.5 10 45.5L51.5801 45.5C53.5131 45.5 120 63.5 123.5 64L55.0801 132.72H120C121.933 132.72 123.5 134.287 123.5 136.22V139C123.5 140.933 121.933 142.5 120 142.5H52.6386C52.4812 142.5 52.3264 142.49 52.1748 142.47L52.1093 142.461ZM52.1093 142.965C51.9361 142.988 51.7595 143 51.5801 143H10.0002C7.79111 143 6.00024 141.209 6.00024 139V49C6.00024 46.7909 7.79111 45 10.0002 45H51.5801C53.7892 45 124 61.7909 124 64L55.5801 132.22H120C122.209 132.22 124 134.011 124 136.22V139C124 141.209 122.209 143 120 143H52.6386C52.4592 143 52.2825 142.988 52.1093 142.965Z" fill="#DDDDDD"/>
        <g clip-path="url(#clip1)">
            <rect x="19" y="19" width="124" height="124" rx="36" fill="#F6F6F6"/>
            <path d="M121.068 45.25H8.93167C8.1663 45.25 7.4843 45.4642 7.00054 45.7977C6.51572 46.1318 6.25 46.5684 6.25 47.0206V140.979C6.25 141.432 6.51572 141.868 7.00054 142.202C7.4843 142.536 8.1663 142.75 8.93167 142.75H121.068C121.834 142.75 122.516 142.536 122.999 142.202C123.484 141.868 123.75 141.432 123.75 140.979V47.0206C123.75 46.5684 123.484 46.1318 122.999 45.7977C122.516 45.4642 121.834 45.25 121.068 45.25Z" fill="#FEFEFE" stroke="#DDDDDD" stroke-width="0.5"/>
            <path opacity="0.08" d="M119.528 50.4673C119.094 50.2988 118.877 50.2146 118.667 50.2235C118.491 50.2311 118.319 50.2855 118.17 50.381C117.994 50.4941 117.865 50.688 117.606 51.076L108.667 64.4975C108.12 65.3192 107.846 65.73 107.871 66.0707C107.891 66.3548 108.031 66.6168 108.256 66.7911C108.527 67 109.02 67 110.007 67H117.657H124.001L123.631 53.1177C123.621 52.7265 123.615 52.5309 123.547 52.3631C123.49 52.221 123.4 52.094 123.286 51.992C123.151 51.8715 122.968 51.8008 122.604 51.6594L119.528 50.4673Z" fill="black"/>
            <path d="M122.368 36.3398C121.922 35.5787 121.699 35.1981 121.41 35.067C121.147 34.9475 120.845 34.9475 120.582 35.067C120.294 35.1982 120.071 35.5788 119.625 36.34L105.402 60.606C104.947 61.3824 104.72 61.7706 104.749 62.0895C104.775 62.38 104.926 62.6446 105.164 62.814C105.424 63 105.874 63 106.774 63H120.996H135.224C136.124 63 136.574 63 136.835 62.814C137.072 62.6445 137.224 62.3799 137.25 62.0894C137.278 61.7704 137.051 61.3822 136.596 60.6058L122.368 36.3398Z" fill="#FFD200"/>
            <path d="M122 53V47C122 46.4477 121.552 46 121 46C120.448 46 120 46.4477 120 47V53C120 53.5523 120.448 54 121 54C121.552 54 122 53.5523 122 53Z" fill="#24285B"/>
            <path d="M120 56C120 56.5523 120.448 57 121 57C121.552 57 122 56.5523 122 56C122 55.4477 121.552 55 121 55C120.448 55 120 55.4477 120 56Z" fill="#24285B"/>
        </g>
        <path d="M43 142.5H117V143H43V142.5Z" fill="#DDDDDD"/>
        <path d="M100.444 90.4844C100.62 90.3202 100.76 90.1252 100.855 89.9105C100.951 89.6958 101 89.4656 101 89.2332C101 89.0007 100.951 88.7706 100.855 88.5559C100.76 88.3412 100.62 88.1462 100.444 87.982L89.1545 77.4497C88.7938 77.1487 88.3235 76.9881 87.84 77.0007C87.3564 77.0133 86.8965 77.1983 86.5544 77.5176C86.2124 77.8369 86.0143 78.2663 86.0007 78.7177C85.9872 79.1691 86.1593 79.6082 86.4817 79.9449L97.7711 90.4844C98.1259 90.8146 98.6065 91 99.1075 91C99.6085 91 100.089 90.8146 100.444 90.4844Z" fill="#FF5651"/>
        <path d="M89.0121 90.4667L99.4667 80.0121C99.6339 79.8501 99.7671 79.6565 99.8587 79.4425C99.9502 79.2285 99.9983 78.9984 100 78.7657C100.002 78.5329 99.957 78.3022 99.8685 78.0869C99.7801 77.8716 99.6496 77.676 99.4848 77.5117C99.32 77.3473 99.1241 77.2174 98.9086 77.1296C98.693 77.0418 98.4621 76.9977 98.2294 77.0001C97.9966 77.0024 97.7667 77.0511 97.553 77.1433C97.3392 77.2354 97.146 77.3692 96.9845 77.5369L86.5369 87.9845C86.3692 88.146 86.2354 88.3392 86.1433 88.553C86.0511 88.7667 86.0024 88.9966 86.0001 89.2294C85.9977 89.4621 86.0418 89.693 86.1296 89.9086C86.2174 90.1241 86.3473 90.32 86.5117 90.4848C86.676 90.6496 86.8716 90.7801 87.0869 90.8685C87.3022 90.957 87.5329 91.0016 87.7657 91C87.9984 90.9983 88.2285 90.9502 88.4425 90.8587C88.6565 90.7671 88.8501 90.6339 89.0121 90.4667Z" fill="#FF5651"/>
        <path d="M44.4494 90.4916C44.6239 90.3291 44.7624 90.136 44.8569 89.9233C44.9514 89.7107 45 89.4828 45 89.2526C45 89.0224 44.9514 88.7945 44.8569 88.5819C44.7624 88.3693 44.6239 88.1762 44.4494 88.0136L33.2715 77.5837C33.1016 77.4062 32.8947 77.263 32.6635 77.1627C32.4322 77.0625 32.1815 77.0073 31.9267 77.0007C31.6718 76.994 31.4182 77.036 31.1813 77.124C30.9444 77.212 30.7292 77.3442 30.549 77.5126C30.3687 77.6809 30.2271 77.8818 30.1328 78.103C30.0385 78.3242 29.9936 78.561 30.0007 78.7989C30.0079 79.0369 30.0669 79.271 30.1743 79.4869C30.2817 79.7028 30.4351 79.896 30.6251 80.0547L41.7955 90.4916C42.149 90.8174 42.6257 91 43.1224 91C43.6191 91 44.0958 90.8174 44.4494 90.4916Z" fill="#FF5651"/>
        <path d="M33.012 90.4667L43.4667 80.0121C43.6339 79.8501 43.7671 79.6565 43.8587 79.4425C43.9502 79.2285 43.9983 78.9984 44 78.7657C44.0016 78.5329 43.9569 78.3022 43.8685 78.0869C43.7801 77.8716 43.6496 77.676 43.4848 77.5117C43.32 77.3473 43.1241 77.2174 42.9085 77.1296C42.693 77.0418 42.4621 76.9977 42.2294 77.0001C41.9966 77.0024 41.7667 77.0511 41.5529 77.1433C41.3392 77.2354 41.146 77.3692 40.9845 77.5369L30.5369 87.9845C30.3692 88.146 30.2354 88.3392 30.1433 88.553C30.0511 88.7667 30.0024 88.9966 30.0001 89.2294C29.9977 89.4621 30.0418 89.693 30.1296 89.9086C30.2174 90.1241 30.3473 90.32 30.5117 90.4848C30.676 90.6496 30.8716 90.7801 31.0869 90.8685C31.3021 90.957 31.5329 91.0016 31.7657 91C31.9984 90.9983 32.2285 90.9502 32.4425 90.8587C32.6565 90.7671 32.8501 90.6339 33.012 90.4667Z" fill="#FF5651"/>
        <path d="M77.2889 116.971C77.7068 116.971 78.1091 116.814 78.4155 116.532C78.7219 116.25 78.9099 115.864 78.9417 115.451C79.4083 109.826 77.2556 98.7537 65.7992 97.1409C62.2203 96.6451 59.2278 97.4582 56.9086 99.5734C51.4636 104.538 52.0034 114.975 52.0234 115.437C52.0357 115.654 52.0909 115.867 52.1859 116.063C52.281 116.259 52.414 116.434 52.5774 116.579C52.7408 116.724 52.9313 116.835 53.1382 116.907C53.345 116.979 53.5641 117.01 53.7829 116.997C54.0017 116.985 54.2159 116.93 54.4134 116.836C54.6108 116.742 54.7876 116.61 54.9337 116.448C55.0797 116.286 55.1922 116.097 55.2646 115.892C55.337 115.687 55.368 115.469 55.3557 115.252C55.3557 115.16 54.8825 105.932 59.1679 102.032C60.7407 100.605 62.7534 100.089 65.3326 100.446C76.5825 101.973 75.6694 114.644 75.6228 115.193C75.5878 115.629 75.7288 116.062 76.015 116.395C76.3011 116.728 76.709 116.936 77.149 116.971H77.2889Z" fill="#FF5651"/>
        <path d="M26 54.5C26 55.3284 26.6716 56 27.5 56C28.3284 56 29 55.3284 29 54.5C29 53.6716 28.3284 53 27.5 53C26.6716 53 26 53.6716 26 54.5Z" fill="#FF5651"/>
        <path d="M20 54.5C20 55.3284 20.6716 56 21.5 56C22.3284 56 23 55.3284 23 54.5C23 53.6716 22.3284 53 21.5 53C20.6716 53 20 53.6716 20 54.5Z" fill="#FFBF3A"/>
        <path d="M14 54.5C14 55.3284 14.6716 56 15.5 56C16.3284 56 17 55.3284 17 54.5C17 53.6716 16.3284 53 15.5 53C14.6716 53 14 53.6716 14 54.5Z" fill="#00C74D"/>
    </g>
    <defs>
        <filter id="filter0_d" x="-60" y="-4" width="250" height="230" filterUnits="userSpaceOnUse" color-interpolation-filters="sRGB">
            <feFlood flood-opacity="0" result="BackgroundImageFix"/>
            <feColorMatrix in="SourceAlpha" type="matrix" values="0 0 0 0 0 0 0 0 0 0 0 0 0 0 0 0 0 0 127 0"/>
            <feOffset dy="17"/>
            <feGaussianBlur stdDeviation="33"/>
            <feColorMatrix type="matrix" values="0 0 0 0 0 0 0 0 0 0 0 0 0 0 0 0 0 0 0.01 0"/>
            <feBlend mode="normal" in2="BackgroundImageFix" result="effect1_dropShadow"/>
            <feBlend mode="normal" in="SourceGraphic" in2="effect1_dropShadow" result="shape"/>
        </filter>
        <clipPath id="clip0">
            <rect width="162" height="162" fill="white"/>
        </clipPath>
        <clipPath id="clip1">
            <rect x="19" y="19" width="124" height="124" rx="36" fill="white"/>
        </clipPath>
    </defs>
</svg>