<svg width="162" height="162" viewBox="0 0 162 162" fill="none" xmlns="http://www.w3.org/2000/svg">
    <g clip-path="url(#clip0)">
        <rect x="39.75" y="130.75" width="78.5" height="6.5" fill="white" stroke="white" stroke-width="0.5"/>
        <g filter="url(#filter0_d)">
            <mask id="path-3-inside-1" fill="white">
                <path fill-rule="evenodd" clip-rule="evenodd" d="M51.5798 45H10C7.79087 45 6.00001 46.7909 6.00001 49V139C6.00001 141.209 7.79086 143 10 143H51.5798C51.7593 143 51.936 142.988 52.1092 142.965C52.2824 142.988 52.4592 143 52.6386 143H120C122.209 143 124 141.209 124 139V136.22C124 134.011 122.209 132.22 120 132.22H55.5798V49C55.5798 46.7909 53.789 45 51.5798 45Z"/>
            </mask>
            <path fill-rule="evenodd" clip-rule="evenodd" d="M51.5798 45H10C7.79087 45 6.00001 46.7909 6.00001 49V139C6.00001 141.209 7.79086 143 10 143H51.5798C51.7593 143 51.936 142.988 52.1092 142.965C52.2824 142.988 52.4592 143 52.6386 143H120C122.209 143 124 141.209 124 139V136.22C124 134.011 122.209 132.22 120 132.22H55.5798V49C55.5798 46.7909 53.789 45 51.5798 45Z" fill="white"/>
            <path d="M52.1092 142.965L52.0437 142.47L52.1092 142.461L52.1748 142.47L52.1092 142.965ZM55.5798 132.22V132.72H55.0798V132.22H55.5798ZM10 44.5H51.5798V45.5H10V44.5ZM5.50001 49C5.50001 46.5147 7.51472 44.5 10 44.5V45.5C8.06702 45.5 6.50001 47.067 6.50001 49H5.50001ZM5.50001 139V49H6.50001V139H5.50001ZM10 143.5C7.51472 143.5 5.50001 141.485 5.50001 139H6.50001C6.50001 140.933 8.06701 142.5 10 142.5V143.5ZM51.5798 143.5H10V142.5H51.5798V143.5ZM52.1748 143.461C51.9799 143.487 51.7813 143.5 51.5798 143.5V142.5C51.7373 142.5 51.8921 142.49 52.0437 142.47L52.1748 143.461ZM52.6386 143.5C52.4372 143.5 52.2386 143.487 52.0437 143.461L52.1748 142.47C52.3263 142.49 52.4811 142.5 52.6386 142.5V143.5ZM120 143.5H52.6386V142.5H120V143.5ZM124.5 139C124.5 141.485 122.485 143.5 120 143.5V142.5C121.933 142.5 123.5 140.933 123.5 139H124.5ZM124.5 136.22V139H123.5V136.22H124.5ZM120 131.72C122.485 131.72 124.5 133.735 124.5 136.22H123.5C123.5 134.287 121.933 132.72 120 132.72V131.72ZM55.5798 131.72H120V132.72H55.5798V131.72ZM56.0798 49V132.22H55.0798V49H56.0798ZM51.5798 44.5C54.0651 44.5 56.0798 46.5147 56.0798 49H55.0798C55.0798 47.067 53.5128 45.5 51.5798 45.5V44.5Z" fill="#DDDDDD" mask="url(#path-3-inside-1)"/>
        </g>
        <g clip-path="url(#clip1)">
            <rect x="19" y="19" width="124" height="124" rx="36" fill="#F9F9F9"/>
            <g clip-path="url(#clip2)">
                <path opacity="0.08" d="M119.528 50.4673C119.093 50.2988 118.876 50.2146 118.667 50.2235C118.49 50.2311 118.318 50.2855 118.17 50.381C117.993 50.4941 117.864 50.688 117.606 51.0759L108.667 64.4975C108.119 65.3191 107.846 65.73 107.87 66.0707C107.89 66.3548 108.03 66.6168 108.256 66.791C108.526 67 109.02 67 110.007 67H117.657H124L123.63 53.1177C123.62 52.7265 123.615 52.5309 123.547 52.3631C123.489 52.221 123.4 52.094 123.285 51.992C123.15 51.8715 122.968 51.8008 122.603 51.6594L119.528 50.4673Z" fill="black"/>
                <path d="M122.369 36.3398C121.922 35.5787 121.699 35.1981 121.411 35.067C121.148 34.9475 120.846 34.9475 120.583 35.0671C120.294 35.1983 120.071 35.5789 119.625 36.3401L105.403 60.606C104.948 61.3824 104.721 61.7706 104.749 62.0895C104.775 62.38 104.927 62.6446 105.164 62.814C105.425 63 105.875 63 106.775 63H120.997H135.225C136.125 63 136.575 63 136.835 62.814C137.073 62.6446 137.224 62.3799 137.25 62.0894C137.279 61.7705 137.051 61.3822 136.596 60.6058L122.369 36.3398Z" fill="#FFD200"/>
                <path d="M122 53V47C122 46.4477 121.552 46 121 46C120.448 46 120 46.4477 120 47V53C120 53.5523 120.448 54 121 54C121.552 54 122 53.5523 122 53Z" fill="#24285B"/>
                <path d="M120 56C120 56.5523 120.448 57 121 57C121.552 57 122 56.5523 122 56C122 55.4477 121.552 55 121 55C120.448 55 120 55.4477 120 56Z" fill="#24285B"/>
            </g>
        </g>
        <path d="M100.444 90.4844C100.62 90.3202 100.76 90.1252 100.855 89.9105C100.951 89.6958 101 89.4656 101 89.2332C101 89.0007 100.951 88.7706 100.855 88.5559C100.76 88.3412 100.62 88.1462 100.444 87.982L89.1545 77.4497C88.7938 77.1487 88.3235 76.9881 87.84 77.0007C87.3564 77.0133 86.8965 77.1983 86.5544 77.5176C86.2124 77.8369 86.0143 78.2663 86.0007 78.7177C85.9872 79.1691 86.1593 79.6082 86.4817 79.9449L97.7711 90.4844C98.1259 90.8146 98.6065 91 99.1075 91C99.6085 91 100.089 90.8146 100.444 90.4844Z" fill="#FF5651"/>
        <path d="M89.0121 90.4667L99.4667 80.0121C99.6339 79.8501 99.7671 79.6565 99.8587 79.4425C99.9502 79.2285 99.9983 78.9984 100 78.7657C100.002 78.5329 99.957 78.3022 99.8685 78.0869C99.7801 77.8716 99.6496 77.676 99.4848 77.5117C99.32 77.3473 99.1241 77.2174 98.9086 77.1296C98.693 77.0418 98.4621 76.9977 98.2294 77.0001C97.9966 77.0024 97.7667 77.0511 97.553 77.1433C97.3392 77.2354 97.146 77.3692 96.9845 77.5369L86.5369 87.9845C86.3692 88.146 86.2354 88.3392 86.1433 88.553C86.0511 88.7667 86.0024 88.9966 86.0001 89.2294C85.9977 89.4621 86.0418 89.693 86.1296 89.9086C86.2174 90.1241 86.3473 90.32 86.5117 90.4848C86.676 90.6496 86.8716 90.7801 87.0869 90.8685C87.3022 90.957 87.5329 91.0016 87.7657 91C87.9984 90.9983 88.2285 90.9502 88.4425 90.8587C88.6565 90.7671 88.8501 90.6339 89.0121 90.4667Z" fill="#FF5651"/>
        <path d="M44.4494 90.4916C44.6239 90.3291 44.7624 90.136 44.8569 89.9233C44.9514 89.7107 45 89.4828 45 89.2526C45 89.0224 44.9514 88.7945 44.8569 88.5819C44.7624 88.3693 44.6239 88.1762 44.4494 88.0136L33.2715 77.5837C33.1016 77.4062 32.8947 77.263 32.6635 77.1627C32.4322 77.0625 32.1815 77.0073 31.9267 77.0007C31.6718 76.994 31.4182 77.036 31.1813 77.124C30.9444 77.212 30.7292 77.3442 30.549 77.5126C30.3687 77.6809 30.2271 77.8818 30.1328 78.103C30.0385 78.3242 29.9936 78.561 30.0007 78.7989C30.0079 79.0369 30.0669 79.271 30.1743 79.4869C30.2817 79.7028 30.4351 79.896 30.6251 80.0547L41.7955 90.4916C42.149 90.8174 42.6257 91 43.1224 91C43.6191 91 44.0958 90.8174 44.4494 90.4916Z" fill="#FF5651"/>
        <path d="M33.012 90.4667L43.4667 80.0121C43.6339 79.8501 43.7671 79.6565 43.8587 79.4425C43.9502 79.2285 43.9983 78.9984 44 78.7657C44.0016 78.5329 43.9569 78.3022 43.8685 78.0869C43.7801 77.8716 43.6496 77.676 43.4848 77.5117C43.32 77.3473 43.1241 77.2174 42.9085 77.1296C42.693 77.0418 42.4621 76.9977 42.2294 77.0001C41.9966 77.0024 41.7667 77.0511 41.5529 77.1433C41.3392 77.2354 41.146 77.3692 40.9845 77.5369L30.5369 87.9845C30.3692 88.146 30.2354 88.3392 30.1433 88.553C30.0511 88.7667 30.0024 88.9966 30.0001 89.2294C29.9977 89.4621 30.0418 89.693 30.1296 89.9086C30.2174 90.1241 30.3473 90.32 30.5117 90.4848C30.676 90.6496 30.8716 90.7801 31.0869 90.8685C31.3021 90.957 31.5329 91.0016 31.7657 91C31.9984 90.9983 32.2285 90.9502 32.4425 90.8587C32.6565 90.7671 32.8501 90.6339 33.012 90.4667Z" fill="#FF5651"/>
        <path d="M77.2889 116.971C77.7068 116.971 78.1091 116.814 78.4155 116.532C78.7219 116.25 78.9099 115.864 78.9417 115.451C79.4083 109.826 77.2556 98.7537 65.7992 97.1409C62.2203 96.6451 59.2278 97.4582 56.9086 99.5734C51.4636 104.538 52.0034 114.975 52.0234 115.437C52.0357 115.654 52.0909 115.867 52.1859 116.063C52.281 116.259 52.414 116.434 52.5774 116.579C52.7408 116.724 52.9313 116.835 53.1382 116.907C53.345 116.979 53.5641 117.01 53.7829 116.997C54.0017 116.985 54.2159 116.93 54.4134 116.836C54.6108 116.742 54.7876 116.61 54.9337 116.448C55.0797 116.286 55.1922 116.097 55.2646 115.892C55.337 115.687 55.368 115.469 55.3557 115.252C55.3557 115.16 54.8825 105.932 59.1679 102.032C60.7407 100.605 62.7534 100.089 65.3326 100.446C76.5825 101.973 75.6694 114.644 75.6228 115.193C75.5878 115.629 75.7288 116.062 76.015 116.395C76.3011 116.728 76.709 116.936 77.149 116.971H77.2889Z" fill="#FF5651"/>
        <circle r="1.5" transform="matrix(-1 0 0 1 27.5 54.5)" fill="#FF5651"/>
        <circle r="1.5" transform="matrix(-1 0 0 1 21.5 54.5)" fill="#FFBF3A"/>
        <circle r="1.5" transform="matrix(-1 0 0 1 15.5 54.5)" fill="#00C74D"/>
        <rect x="43" y="142.5" width="74" height="0.5" fill="#DDDDDD"/>
    </g>
    <defs>
        <filter id="filter0_d" x="-7" y="40" width="136" height="116" filterUnits="userSpaceOnUse" color-interpolation-filters="sRGB">
            <feFlood flood-opacity="0" result="BackgroundImageFix"/>
            <feColorMatrix in="SourceAlpha" type="matrix" values="0 0 0 0 0 0 0 0 0 0 0 0 0 0 0 0 0 0 127 0"/>
            <feOffset dx="-4" dy="4"/>
            <feGaussianBlur stdDeviation="4.5"/>
            <feColorMatrix type="matrix" values="0 0 0 0 0 0 0 0 0 0 0 0 0 0 0 0 0 0 0.01 0"/>
            <feBlend mode="normal" in2="BackgroundImageFix" result="effect1_dropShadow"/>
            <feBlend mode="normal" in="SourceGraphic" in2="effect1_dropShadow" result="shape"/>
        </filter>
        <filter id="filter1_d" x="-103" y="-4" width="293" height="326" filterUnits="userSpaceOnUse" color-interpolation-filters="sRGB">
            <feFlood flood-opacity="0" result="BackgroundImageFix"/>
            <feColorMatrix in="SourceAlpha" type="matrix" values="0 0 0 0 0 0 0 0 0 0 0 0 0 0 0 0 0 0 127 0"/>
            <feOffset dy="17"/>
            <feGaussianBlur stdDeviation="33"/>
            <feColorMatrix type="matrix" values="0 0 0 0 0 0 0 0 0 0 0 0 0 0 0 0 0 0 0.1 0"/>
            <feBlend mode="normal" in2="BackgroundImageFix" result="effect1_dropShadow"/>
            <feBlend mode="normal" in="SourceGraphic" in2="effect1_dropShadow" result="shape"/>
        </filter>
        <clipPath id="clip0">
            <rect width="162" height="162" rx="17" fill="white"/>
        </clipPath>
        <clipPath id="clip1">
            <rect x="19" y="19" width="124" height="124" rx="36" fill="white"/>
        </clipPath>
        <clipPath id="clip2">
            <rect width="252" height="190" fill="white" transform="translate(-23 10)"/>
        </clipPath>
    </defs>
</svg>