<svg width="16" height="14" viewBox="0 0 16 14" fill="currentColor" stroke="none" xmlns="http://www.w3.org/2000/svg">
<path fill-rule="evenodd" clip-rule="evenodd" d="M5 -6.10352e-05C4.4802 -6.10352e-05 4 0.484473 4 0.999939V4.00003H1C0.480203 4.00003 0 4.48456 0 5.00003V13C0 13.5154 0.480203 14 1 14H11C11.5198 14 12 13.5154 12 13V10H10V12H2V6.00003H4V8.99994C4 9.5154 4.4802 9.99994 5 9.99994H15C15.5198 9.99994 16 9.51545 16 8.99998V0.999956C16 0.48449 15.5198 -6.10352e-05 15 -6.10352e-05H5ZM6 7.99994V1.99994H14V7.99998L6 7.99994Z" fill="#333333"/>
</svg>
