<svg width="18" height="12" viewBox="0 0 18 12" fill="none" xmlns="http://www.w3.org/2000/svg">
<path d="M11.375 5.80001C11.375 7.29773 10.2519 8.40001 9 8.40001C7.74814 8.40001 6.625 7.29773 6.625 5.80001C6.625 4.3023 7.74814 3.20001 9 3.20001C10.2519 3.20001 11.375 4.3023 11.375 5.80001Z" stroke="currentColor" stroke-width="2"/>
<path d="M13.7816 2.84972C15.1439 3.85902 16.1991 5.03307 16.7592 5.71647C16.2099 6.4659 15.151 7.78613 13.7773 8.9246C12.345 10.1118 10.6928 11 9 11C7.30722 11 5.65504 10.1118 4.22265 8.9246C2.84901 7.78613 1.79015 6.4659 1.24083 5.71647C1.80088 5.03307 2.85606 3.85902 4.21843 2.84972C5.63626 1.79934 7.28851 1 9 1C10.7115 1 12.3637 1.79934 13.7816 2.84972Z" stroke="currentColor" stroke-width="2" stroke-linejoin="round"/>
</svg>
