<svg width="8" height="16" viewBox="0 0 8 16" fill="currentColor" xmlns="http://www.w3.org/2000/svg">
<path d="M7.53377 2.32129C7.11884 0.976911 5.24968 0 3.7691 0C1.98586 0 0.0613632 1.41708 0.00437048 3.18647C-0.0054631 3.24499 0.00437048 3.36653 0.00437048 3.36653V14.5158C0.00437048 15.0756 0.425715 15.5294 0.945545 15.5294C1.46538 15.5294 1.88672 14.914 1.88672 14.5158C1.88672 14.1176 1.88672 3.29413 1.88672 3.29413C1.88672 2.5144 2.98943 1.88235 3.7691 1.88235C4.5214 1.88235 5.57413 2.47092 5.6471 3.21264V13.647C5.6471 14.4268 4.6886 14.4268 4.6886 13.647V6.11765C4.6886 5.59785 4.26722 5.17648 3.74742 5.17648C3.22759 5.17648 2.80622 5.59785 2.80622 6.11765C2.80622 6.11765 2.86027 14.4745 2.9524 14.6199C3.36736 15.9643 3.76904 16 5.65136 16C7.53374 16 7.52939 13.5746 7.52939 13.5746V3.85068C7.53194 3.82232 7.53374 3.79369 7.53374 3.76473C7.53377 3.7647 7.62593 2.4667 7.53377 2.32129Z"/>
</svg>
