<svg viewBox="0 0 460 212" fill="none" xmlns="http://www.w3.org/2000/svg">
    <g filter="url(#filter0_i)">
        <path d="M0 7.99999C0 3.58172 3.58172 0 8 0H452C456.418 0 460 3.58172 460 8V208C460 210.209 458.209 212 456 212H4C1.79087 212 0 210.209 0 208V7.99999Z" fill="#FBFBFB"/>
        <rect x="157" y="33" width="146" height="146" rx="32" fill="#DBE3FF"/>
        <path d="M217.78 98.1909C217.78 98.1909 215.141 109.797 216.289 117.826C216.401 118.605 216.681 119.355 217.112 120.034C217.544 120.714 218.118 121.308 218.803 121.784C219.487 122.26 220.268 122.607 221.101 122.806C221.933 123.005 222.8 123.051 223.652 122.943C228.073 122.365 233.879 120.391 236.122 114.335L241.321 104.463C241.321 104.463 244.33 98.1789 237.679 92.6169C231.029 87.0549 219.008 91.0398 217.78 98.1909Z" fill="#F4A28C"/>
        <path d="M240.276 106L242 147L218 146.275L226.391 116.73L240.276 106Z" fill="#F4A28C"/>
        <path d="M220.58 97.8807C224.509 98.4993 228.496 98.6655 232.463 98.376C231.117 99.9712 230.269 101.925 230.023 103.996C229.777 106.067 230.144 108.164 231.079 110.029C231.946 111.857 233.425 113.325 235.26 114.182C237.096 115.038 239.172 115.229 241.133 114.722L242.87 98.3239C243.203 95.9849 242.893 93.5997 241.973 91.4231C241.053 89.2466 239.558 87.3605 237.647 85.9665C236 84.755 234.277 83.6491 232.489 82.6556C227.984 80.205 220.737 82.5252 216.819 78.8493C216.431 78.4809 215.953 78.2195 215.433 78.0908C214.913 77.962 214.368 77.9704 213.852 78.1149C213.336 78.2594 212.867 78.5352 212.489 78.9153C212.112 79.2954 211.84 79.7667 211.701 80.2832C210.395 85.1714 210.33 93.1228 216.754 96.6423C217.952 97.2645 219.245 97.6831 220.58 97.8807Z" fill="#854C1D"/>
        <path d="M229 110.143C229 110.143 229.727 105.277 233.64 106.092C237.553 106.907 236.533 113.935 231.082 114L229 110.143Z" fill="#F4A28C"/>
        <path d="M217.265 104L212.606 108.804C212.343 109.078 212.158 109.41 212.066 109.77C211.974 110.129 211.978 110.505 212.079 110.863C212.18 111.22 212.375 111.548 212.644 111.815C212.913 112.083 213.249 112.282 213.62 112.394L219 114L217.265 104Z" fill="#F4A28C"/>
        <path opacity="0.31" d="M224.929 123.019C228.284 122.693 231.437 121.643 234 120C234 120 232.513 126.448 222 132L224.929 123.019Z" fill="#CE8172"/>
        <path fill-rule="evenodd" clip-rule="evenodd" d="M183.722 178.567C188.129 163.168 199.672 143 229.909 143C261.204 143 272.549 163.58 276.661 178.501C274.824 178.829 272.932 179 271 179H189C187.202 179 185.439 178.852 183.722 178.567Z" fill="#2F78F0"/>
    </g>
    <defs>
        <filter id="filter0_i" x="0" y="-4" width="460" height="216" filterUnits="userSpaceOnUse" color-interpolation-filters="sRGB">
            <feFlood flood-opacity="0" result="BackgroundImageFix"/>
            <feBlend mode="normal" in="SourceGraphic" in2="BackgroundImageFix" result="shape"/>
            <feColorMatrix in="SourceAlpha" type="matrix" values="0 0 0 0 0 0 0 0 0 0 0 0 0 0 0 0 0 0 127 0" result="hardAlpha"/>
            <feOffset dy="-4"/>
            <feGaussianBlur stdDeviation="10"/>
            <feComposite in2="hardAlpha" operator="arithmetic" k2="-1" k3="1"/>
            <feColorMatrix type="matrix" values="0 0 0 0 0 0 0 0 0 0 0 0 0 0 0 0 0 0 0.02 0"/>
            <feBlend mode="normal" in2="shape" result="effect1_innerShadow"/>
        </filter>
    </defs>
</svg>