<svg version="1.1" xmlns="http://www.w3.org/2000/svg" x="0px" y="0px" viewBox="0 0 512 512" style="enable-background:new 0 0 512 512;" xml:space="preserve">
<g><path d="M276.6,322.8H122.8l-27,62.7c-6.6,15.4-10,27-10,34.6c0,6.1,2.9,11.4,8.6,16c5.8,4.6,18.2,7.6,37.4,8.9v10.8H6.8v-10.8 c16.6-2.9,27.3-6.7,32.2-11.4c10-9.4,21-28.4,33.1-57.1l139.7-327h10.3l138.3,330.5c11.1,26.6,21.2,43.8,30.3,51.7 s21.7,12.4,37.9,13.3v10.8H271.9v-10.8c15.8-0.8,26.5-3.4,32.1-7.9c5.6-4.5,8.3-10,8.3-16.4c0-8.6-3.9-22.2-11.7-40.7L276.6,322.8z M268.4,301.1L201,140.6l-69.1,160.5H268.4z"/></g>
<g><path d="M410.7,172.6v-70.7h-70.1V72.4h70.1V2.3h29.9v70.1h70.1v29.5h-70.1v70.7H410.7z"/></g></svg>