<svg width="16" height="16" viewBox="0 0 16 16" fill="none" stroke="currentColor" xmlns="http://www.w3.org/2000/svg">
<path d="M4.69466 3.57807L3.41808 3.41809L3.57807 4.69466C3.69786 5.65048 3.29656 6.61929 2.536 7.21045L1.52019 8L2.536 8.78955C3.29657 9.38071 3.69786 10.3495 3.57807 11.3053L3.41809 12.5819L4.69466 12.4219C5.65048 12.3021 6.61929 12.7034 7.21045 13.464L8 14.4798L8.78955 13.464C9.38071 12.7034 10.3495 12.3021 11.3053 12.4219L12.5819 12.5819L12.4219 11.3053C12.3021 10.3495 12.7034 9.38071 13.464 8.78955L14.4798 8L13.464 7.21045C12.7034 6.61929 12.3021 5.65048 12.4219 4.69466L12.5819 3.41808L11.3053 3.57807C10.3495 3.69786 9.38071 3.29657 8.78955 2.536L8 1.52019L7.21045 2.536C6.61929 3.29657 5.65048 3.69786 4.69466 3.57807ZM7.49445 1.40409C7.61615 0.865303 8.38385 0.865304 8.50555 1.40409C8.8888 3.10075 10.8358 3.90723 12.3065 2.97851C12.7736 2.68359 13.3164 3.22643 13.0215 3.69346C12.0928 5.16419 12.8992 7.1112 14.5959 7.49445C15.1347 7.61615 15.1347 8.38385 14.5959 8.50555C12.8992 8.8888 12.0928 10.8358 13.0215 12.3065C13.3164 12.7736 12.7736 13.3164 12.3065 13.0215C10.8358 12.0928 8.8888 12.8992 8.50555 14.5959C8.38385 15.1347 7.61615 15.1347 7.49445 14.5959C7.1112 12.8992 5.16419 12.0928 3.69346 13.0215C3.22643 13.3164 2.68359 12.7736 2.97851 12.3065C3.90723 10.8358 3.10075 8.8888 1.40409 8.50555C0.865305 8.38385 0.865302 7.61615 1.40409 7.49445C3.10075 7.1112 3.90723 5.16418 2.97851 3.69346C2.68359 3.22643 3.22643 2.68359 3.69346 2.97851C5.16419 3.90723 7.1112 3.10075 7.49445 1.40409Z" stroke-width="2"/>
</svg>
