<svg width="16" height="16" viewBox="0 0 16 16" fill="currentColor" xmlns="http://www.w3.org/2000/svg">
<path fill-rule="evenodd" clip-rule="evenodd" d="M4.57031 4.57031C4.73397 5.87621 4.18882 7.19232 3.14969 8C4.18882 8.80769 4.73397 10.1238 4.57031 11.4297C5.87621 11.266 7.19232 11.8112 8 12.8503C8.80769 11.8112 10.1238 11.266 11.4297 11.4297C11.266 10.1238 11.8112 8.80768 12.8503 8C11.8112 7.19231 11.266 5.87621 11.4297 4.57031C10.1238 4.73397 8.80769 4.18882 8 3.14969C7.19232 4.18882 5.87621 4.73397 4.57031 4.57031ZM9.48097 1.18376C9.12445 -0.394585 6.87555 -0.394586 6.51903 1.18376C6.28796 2.20668 5.1141 2.69291 4.2274 2.13298C2.85924 1.26903 1.26903 2.85924 2.13298 4.22739C2.69291 5.1141 2.20668 6.28796 1.18376 6.51903C-0.394585 6.87555 -0.394586 9.12445 1.18376 9.48097C2.20668 9.71204 2.69291 10.8859 2.13298 11.7726C1.26903 13.1408 2.85924 14.731 4.2274 13.867C5.1141 13.3071 6.28796 13.7933 6.51903 14.8162C6.87555 16.3946 9.12445 16.3946 9.48097 14.8162C9.71204 13.7933 10.8859 13.3071 11.7726 13.867C13.1408 14.731 14.731 13.1408 13.867 11.7726C13.3071 10.8859 13.7933 9.71204 14.8162 9.48097C16.3946 9.12445 16.3946 6.87555 14.8162 6.51903C13.7933 6.28796 13.3071 5.1141 13.867 4.2274C14.731 2.85924 13.1408 1.26903 11.7726 2.13298C10.8859 2.69291 9.71204 2.20668 9.48097 1.18376Z"/>
</svg>
