<svg viewBox="0 0 12 16" fill="none" stroke="currentColor" xmlns="http://www.w3.org/2000/svg">
<path d="M1 6.4C1 3.35589 3.29839 1 6 1C8.70161 1 11 3.35589 11 6.4C11 7.03671 10.7174 7.90278 10.1781 8.92437C9.65172 9.92169 8.93806 10.9619 8.20615 11.9174C7.47698 12.8693 6.74535 13.7168 6.19482 14.3274C6.12693 14.4027 6.06188 14.4743 6 14.542C5.93812 14.4743 5.87307 14.4027 5.80518 14.3274C5.25465 13.7168 4.52303 12.8693 3.79385 11.9174C3.06194 10.9619 2.34828 9.92169 1.82187 8.92437C1.28264 7.90278 1 7.03671 1 6.4Z" stroke-width="2"/>
<circle cx="6" cy="6" r="1" stroke-width="2"/>
</svg>
