<svg viewBox="0 0 460 212" fill="none" xmlns="http://www.w3.org/2000/svg">
    <g filter="url(#filter0_i)">
        <g clip-path="url(#clip0)">
            <path d="M0 7.99999C0 3.58172 3.58172 0 8 0H452C456.418 0 460 3.58172 460 8V208C460 210.209 458.209 212 456 212H4C1.79087 212 0 210.209 0 208V7.99999Z" fill="#FBFBFB"/>
            <g filter="url(#filter1_d)">
                <path d="M139 239.438H945.101V248.001H139V239.438Z" fill="white" fill-opacity="0.95"/>
            </g>
            <g filter="url(#filter2_d)">
                <path fill-rule="evenodd" clip-rule="evenodd" d="M68 142C61.3726 142 56 147.373 56 154V194V200V212H460V200V194V142H68Z" fill="white" fill-opacity="0.95"/>
            </g>
            <rect x="139" y="149" width="331" height="34" rx="8" fill="#F6F6F6"/>
            <rect x="208" y="153" width="262" height="26" rx="13" fill="#EFEFEF"/>
            <circle cx="80" cy="166" r="4" fill="#FF5651"/>
            <circle cx="96" cy="166" r="4" fill="#FFBF3A"/>
            <circle cx="112" cy="166" r="4" fill="#00C74D"/>
            <path d="M156.576 165.576C156.341 165.81 156.341 166.19 156.576 166.424L160.394 170.243C160.628 170.477 161.008 170.477 161.243 170.243C161.477 170.008 161.477 169.628 161.243 169.394L157.849 166L161.243 162.606C161.477 162.372 161.477 161.992 161.243 161.757C161.008 161.523 160.628 161.523 160.394 161.757L156.576 165.576ZM167 165.4H157V166.6H167V165.4Z" fill="#9E9E9F"/>
            <path d="M189.424 166.424C189.659 166.19 189.659 165.81 189.424 165.576L185.606 161.757C185.372 161.523 184.992 161.523 184.757 161.757C184.523 161.992 184.523 162.372 184.757 162.606L188.151 166L184.757 169.394C184.523 169.628 184.523 170.008 184.757 170.243C184.992 170.477 185.372 170.477 185.606 170.243L189.424 166.424ZM179 166.6L189 166.6L189 165.4L179 165.4L179 166.6Z" fill="#9E9E9F"/>
            <g filter="url(#filter3_d)">
                <rect x="212.492" y="104.295" width="770" height="26" rx="13" transform="rotate(-3.44693 212.492 104.295)" fill="white"/>
                <rect x="213.021" y="104.764" width="769" height="25" rx="12.5" transform="rotate(-3.44693 213.021 104.764)" stroke="#EAEAEA"/>
            </g>
            <path d="M225.84 112.508L227.302 112.42L230.218 118.474L230.312 118.468L232.48 112.108L233.942 112.02L234.423 120.005L233.277 120.074L232.929 114.296L232.855 114.3L230.847 120.209L229.896 120.266L227.193 114.637L227.119 114.642L227.467 120.424L226.321 120.493L225.84 112.508Z" fill="#2B87F3"/>
            <path d="M240.058 119.404C239.65 119.684 239.168 119.841 238.611 119.874C238.055 119.908 237.557 119.81 237.118 119.581C236.679 119.349 236.331 119.006 236.074 118.552C235.817 118.098 235.67 117.565 235.634 116.954C235.577 116.021 235.787 115.256 236.262 114.658C236.738 114.061 237.396 113.737 238.239 113.686C239.081 113.636 239.774 113.878 240.317 114.414C240.861 114.95 241.161 115.685 241.217 116.618C241.254 117.229 241.172 117.775 240.972 118.257C240.771 118.738 240.467 119.121 240.058 119.404ZM238.556 118.895C238.822 118.879 239.055 118.809 239.256 118.685C239.46 118.56 239.619 118.397 239.735 118.194C239.853 117.992 239.937 117.763 239.987 117.51C240.04 117.254 240.057 116.979 240.039 116.685C240.022 116.394 239.972 116.124 239.889 115.876C239.809 115.628 239.698 115.41 239.556 115.223C239.417 115.033 239.239 114.889 239.021 114.79C238.806 114.688 238.566 114.645 238.301 114.661C238.034 114.677 237.798 114.749 237.594 114.876C237.393 115 237.233 115.165 237.115 115.37C236.997 115.573 236.912 115.802 236.859 116.059C236.81 116.315 236.793 116.588 236.811 116.879C236.829 117.173 236.878 117.444 236.958 117.692C237.04 117.938 237.153 118.154 237.294 118.341C237.436 118.528 237.614 118.672 237.829 118.771C238.046 118.87 238.289 118.911 238.556 118.895Z" fill="#2B87F3"/>
            <path d="M243.741 117.804L246.119 113.29L247.374 113.214L247.735 119.203L246.593 119.272L246.33 114.913L243.965 119.431L242.697 119.507L242.337 113.518L243.479 113.449L243.741 117.804ZM245.498 111.292L246.457 111.235C246.483 111.677 246.349 112.043 246.053 112.335C245.758 112.627 245.348 112.788 244.823 112.82C244.303 112.851 243.879 112.74 243.55 112.486C243.222 112.232 243.044 111.884 243.018 111.442L243.973 111.384C243.986 111.6 244.058 111.774 244.188 111.907C244.322 112.038 244.518 112.095 244.778 112.079C245.035 112.064 245.222 111.982 245.338 111.834C245.457 111.686 245.51 111.506 245.498 111.292Z" fill="#2B87F3"/>
            <path d="M251.728 120.697L251.563 117.959L252.05 117.93C252.276 117.7 252.434 117.375 252.524 116.954C252.615 116.531 252.67 115.926 252.688 115.137L252.741 112.891L256.811 112.646L257.111 117.625L258.031 117.57L258.196 120.307L257.058 120.376L256.954 118.648L252.778 118.9L252.882 120.627L251.728 120.697ZM253.298 117.855L255.973 117.694L255.733 113.713L253.846 113.826L253.795 115.07C253.773 115.778 253.727 116.352 253.656 116.792C253.586 117.23 253.467 117.584 253.298 117.855Z" fill="#2B87F3"/>
            <path d="M263.209 118.009C262.8 118.289 262.318 118.446 261.762 118.48C261.206 118.513 260.708 118.416 260.269 118.186C259.83 117.954 259.482 117.611 259.225 117.157C258.968 116.703 258.821 116.171 258.784 115.56C258.728 114.627 258.937 113.861 259.413 113.264C259.888 112.667 260.547 112.343 261.389 112.292C262.231 112.241 262.924 112.484 263.468 113.02C264.012 113.556 264.311 114.29 264.368 115.224C264.404 115.834 264.323 116.381 264.122 116.862C263.921 117.344 263.617 117.726 263.209 118.009ZM261.707 117.501C261.972 117.485 262.205 117.415 262.406 117.291C262.61 117.166 262.77 117.003 262.886 116.8C263.004 116.597 263.088 116.369 263.138 116.116C263.19 115.859 263.208 115.584 263.19 115.291C263.172 114.999 263.122 114.73 263.039 114.482C262.959 114.234 262.848 114.016 262.707 113.829C262.567 113.639 262.389 113.494 262.172 113.395C261.957 113.293 261.717 113.25 261.452 113.266C261.184 113.283 260.948 113.354 260.745 113.481C260.543 113.606 260.384 113.77 260.266 113.976C260.147 114.179 260.062 114.408 260.01 114.664C259.96 114.92 259.944 115.194 259.961 115.485C259.979 115.779 260.028 116.05 260.108 116.298C260.191 116.543 260.303 116.76 260.445 116.947C260.586 117.134 260.765 117.277 260.979 117.376C261.197 117.476 261.439 117.517 261.707 117.501Z" fill="#2B87F3"/>
            <path d="M269.122 116.467L270.782 111.804L272.233 111.717L272.593 117.706L271.459 117.774L271.197 113.435L269.642 117.884L268.776 117.936L266.728 113.688L266.99 118.044L265.848 118.112L265.487 112.123L266.953 112.035L269.122 116.467Z" fill="#2B87F3"/>
            <path d="M276.736 117.578C276.153 117.613 275.639 117.517 275.192 117.291C274.745 117.063 274.394 116.724 274.137 116.275C273.883 115.823 273.737 115.289 273.7 114.673C273.673 114.218 273.714 113.794 273.823 113.402C273.932 113.006 274.098 112.666 274.321 112.382C274.544 112.094 274.824 111.865 275.16 111.693C275.497 111.519 275.87 111.42 276.281 111.395C276.559 111.378 276.827 111.397 277.083 111.452C277.342 111.504 277.589 111.602 277.824 111.744C278.062 111.884 278.271 112.063 278.452 112.282C278.632 112.5 278.78 112.777 278.897 113.112C279.016 113.446 279.088 113.824 279.114 114.245L279.139 114.659L274.881 114.915C274.931 115.483 275.117 115.917 275.441 116.216C275.766 116.512 276.183 116.645 276.689 116.614C277.025 116.594 277.308 116.504 277.538 116.344C277.771 116.184 277.931 115.961 278.018 115.677L279.134 115.809C279.028 116.312 278.763 116.723 278.339 117.043C277.915 117.361 277.38 117.539 276.736 117.578ZM274.832 114.041L277.944 113.854C277.913 113.392 277.751 113.02 277.458 112.741C277.164 112.458 276.794 112.331 276.347 112.358C275.889 112.385 275.522 112.562 275.244 112.89C274.966 113.214 274.829 113.598 274.832 114.041Z" fill="#2B87F3"/>
            <path d="M281.373 111.166L281.523 113.658L284.116 113.502L283.966 111.01L285.105 110.942L285.466 116.931L284.327 116.999L284.177 114.512L281.584 114.668L281.734 117.156L280.592 117.224L280.231 111.235L281.373 111.166Z" fill="#2B87F3"/>
            <path d="M287.798 116.865C287.582 116.878 287.393 116.813 287.23 116.672C287.07 116.528 286.984 116.348 286.971 116.132C286.958 115.919 287.024 115.732 287.168 115.572C287.312 115.409 287.491 115.322 287.704 115.309C287.917 115.296 288.105 115.362 288.268 115.506C288.43 115.647 288.518 115.825 288.531 116.038C288.544 116.254 288.478 116.443 288.334 116.605C288.19 116.765 288.011 116.852 287.798 116.865Z" fill="#2B87F3"/>
            <path d="M290.245 116.643L289.884 110.654L291.011 110.586L291.068 111.537L291.13 111.534C291.22 111.207 291.397 110.942 291.662 110.738C291.926 110.535 292.235 110.422 292.588 110.401C292.781 110.389 292.946 110.388 293.085 110.398L293.152 111.514C292.988 111.476 292.784 111.465 292.54 111.48C292.127 111.505 291.792 111.653 291.537 111.924C291.282 112.192 291.167 112.523 291.19 112.915L291.41 116.573L290.245 116.643Z" fill="#2B87F3"/>
            <path d="M298.213 113.67L298.002 110.165L299.171 110.094L299.532 116.084L298.386 116.153L298.323 115.115L298.261 115.119C298.136 115.463 297.924 115.747 297.627 115.971C297.333 116.193 296.97 116.316 296.538 116.342C295.946 116.378 295.458 116.212 295.076 115.843C294.694 115.472 294.481 114.926 294.437 114.203L294.208 110.393L295.374 110.323L295.595 113.992C295.619 114.398 295.75 114.716 295.989 114.947C296.229 115.175 296.532 115.278 296.896 115.256C297.065 115.246 297.229 115.205 297.389 115.133C297.549 115.06 297.694 114.96 297.825 114.832C297.955 114.704 298.056 114.541 298.128 114.341C298.199 114.138 298.227 113.915 298.213 113.67Z" fill="#2B87F3"/>
            <path d="M490.263 46.9663C489.953 46.578 489.384 46.4457 488.926 46.6558L447.601 65.613C447.012 65.8831 446.867 66.5866 447.303 67.0598L463.829 85.0174C464.123 85.3367 464.603 85.4558 465.02 85.313L507.632 70.7323C508.264 70.5161 508.483 69.8103 508.076 69.3004L490.263 46.9663Z" fill="#2B87F3"/>
            <path fill-rule="evenodd" clip-rule="evenodd" d="M428.07 103.226C436.756 101.665 447.401 96.7458 447.401 96.7458C455.392 86.3896 469.375 78.0035 469.375 78.0035L448.367 67.9003C448.367 67.9003 435.215 70.1138 425.9 73.2176C419.728 75.2729 412.514 83.7825 409.612 87.438C407.971 90.3069 407.053 91.8532 406.815 92.6385L415.464 92.1366C415.867 91.644 416.281 91.1028 416.551 90.7506L416.567 90.7298C425.804 80.6683 430.707 81.7442 435.405 82.775C435.568 82.8109 435.732 82.8468 435.895 82.8821C440.253 84.3315 444.041 88.608 432.557 93.1578C427.551 96.0149 423.009 102.149 428.07 103.226Z" fill="#F4A28C"/>
        </g>
    </g>
    <defs>
        <filter id="filter0_i" x="0" y="-4" width="460" height="216" filterUnits="userSpaceOnUse" color-interpolation-filters="sRGB">
            <feFlood flood-opacity="0" result="BackgroundImageFix"/>
            <feBlend mode="normal" in="SourceGraphic" in2="BackgroundImageFix" result="shape"/>
            <feColorMatrix in="SourceAlpha" type="matrix" values="0 0 0 0 0 0 0 0 0 0 0 0 0 0 0 0 0 0 127 0" result="hardAlpha"/>
            <feOffset dy="-4"/>
            <feGaussianBlur stdDeviation="10"/>
            <feComposite in2="hardAlpha" operator="arithmetic" k2="-1" k3="1"/>
            <feColorMatrix type="matrix" values="0 0 0 0 0 0 0 0 0 0 0 0 0 0 0 0 0 0 0.02 0"/>
            <feBlend mode="normal" in2="shape" result="effect1_innerShadow"/>
        </filter>
        <filter id="filter1_d" x="67" y="190.438" width="938.101" height="140.563" filterUnits="userSpaceOnUse" color-interpolation-filters="sRGB">
            <feFlood flood-opacity="0" result="BackgroundImageFix"/>
            <feColorMatrix in="SourceAlpha" type="matrix" values="0 0 0 0 0 0 0 0 0 0 0 0 0 0 0 0 0 0 127 0"/>
            <feOffset dx="-6" dy="17"/>
            <feGaussianBlur stdDeviation="33"/>
            <feColorMatrix type="matrix" values="0 0 0 0 0 0 0 0 0 0 0 0 0 0 0 0 0 0 0.12 0"/>
            <feBlend mode="normal" in2="BackgroundImageFix" result="effect1_dropShadow"/>
            <feBlend mode="normal" in="SourceGraphic" in2="effect1_dropShadow" result="shape"/>
        </filter>
        <filter id="filter2_d" x="-16" y="93" width="536" height="202" filterUnits="userSpaceOnUse" color-interpolation-filters="sRGB">
            <feFlood flood-opacity="0" result="BackgroundImageFix"/>
            <feColorMatrix in="SourceAlpha" type="matrix" values="0 0 0 0 0 0 0 0 0 0 0 0 0 0 0 0 0 0 127 0"/>
            <feOffset dx="-6" dy="17"/>
            <feGaussianBlur stdDeviation="33"/>
            <feColorMatrix type="matrix" values="0 0 0 0 0 0 0 0 0 0 0 0 0 0 0 0 0 0 0.12 0"/>
            <feBlend mode="normal" in2="BackgroundImageFix" result="effect1_dropShadow"/>
            <feBlend mode="normal" in="SourceGraphic" in2="effect1_dropShadow" result="shape"/>
        </filter>
        <filter id="filter3_d" x="192.492" y="43.999" width="810.17" height="112.248" filterUnits="userSpaceOnUse" color-interpolation-filters="sRGB">
            <feFlood flood-opacity="0" result="BackgroundImageFix"/>
            <feColorMatrix in="SourceAlpha" type="matrix" values="0 0 0 0 0 0 0 0 0 0 0 0 0 0 0 0 0 0 127 0"/>
            <feOffset dy="6"/>
            <feGaussianBlur stdDeviation="10"/>
            <feColorMatrix type="matrix" values="0 0 0 0 0 0 0 0 0 0 0 0 0 0 0 0 0 0 0.1 0"/>
            <feBlend mode="normal" in2="BackgroundImageFix" result="effect1_dropShadow"/>
            <feBlend mode="normal" in="SourceGraphic" in2="effect1_dropShadow" result="shape"/>
        </filter>
        <clipPath id="clip0">
            <path d="M0 7.99999C0 3.58172 3.58172 0 8 0H452C456.418 0 460 3.58172 460 8V208C460 210.209 458.209 212 456 212H4C1.79087 212 0 210.209 0 208V7.99999Z" fill="white"/>
        </clipPath>
    </defs>
</svg>