<svg width="920" height="600" viewBox="0 0 920 600" fill="none" xmlns="http://www.w3.org/2000/svg">
<rect width="920" height="600" rx="6" fill="#6DA1FA"/>
<rect x="20" y="60" width="880" height="520" rx="6" fill="white"/>
<circle cx="30" cy="30" r="10" fill="white"/>
<circle cx="30" cy="30" r="10" fill="white"/>
<circle cx="70" cy="30" r="10" fill="white"/>
<circle cx="70" cy="30" r="10" fill="white"/>
<circle cx="110" cy="30" r="10" fill="white"/>
<circle cx="110" cy="30" r="10" fill="white"/>
<path d="M240.326 138.879C240.509 139.215 240.785 139.491 241.121 139.674L256.792 148.245C258.179 149.004 258.179 150.996 256.792 151.755L241.121 160.326C240.785 160.509 240.509 160.785 240.326 161.121L231.755 176.792C230.996 178.179 229.004 178.179 228.245 176.792L219.674 161.121C219.491 160.785 219.215 160.509 218.879 160.326L203.208 151.755C201.821 150.996 201.821 149.004 203.208 148.245L218.879 139.674C219.215 139.491 219.491 139.215 219.674 138.879L228.245 123.208C229.004 121.821 230.996 121.821 231.755 123.208L240.326 138.879Z" fill="#6DA1FA"/>
<path d="M710.326 468.879C710.509 469.215 710.785 469.491 711.121 469.674L726.792 478.245C728.179 479.004 728.179 480.996 726.792 481.755L711.121 490.326C710.785 490.509 710.509 490.785 710.326 491.121L701.755 506.792C700.996 508.179 699.004 508.179 698.245 506.792L689.674 491.121C689.491 490.785 689.215 490.509 688.879 490.326L673.208 481.755C671.821 480.996 671.821 479.004 673.208 478.245L688.879 469.674C689.215 469.491 689.491 469.215 689.674 468.879L698.245 453.208C699.004 451.821 700.996 451.821 701.755 453.208L710.326 468.879Z" fill="#6DA1FA"/>
<path d="M146.79 282.415C146.974 282.75 147.25 283.026 147.585 283.21L156.792 288.245C158.179 289.004 158.179 290.996 156.792 291.755L147.585 296.79C147.25 296.974 146.974 297.25 146.79 297.585L141.755 306.792C140.996 308.179 139.004 308.179 138.245 306.792L133.21 297.585C133.026 297.25 132.75 296.974 132.415 296.79L123.208 291.755C121.821 290.996 121.821 289.004 123.208 288.245L132.415 283.21C132.75 283.026 133.026 282.75 133.21 282.415L138.245 273.208C139.004 271.821 140.996 271.821 141.755 273.208L146.79 282.415Z" fill="#6DA1FA"/>
<path d="M686.79 202.415C686.974 202.75 687.25 203.026 687.585 203.21L696.792 208.245C698.179 209.004 698.179 210.996 696.792 211.755L687.585 216.79C687.25 216.974 686.974 217.25 686.79 217.585L681.755 226.792C680.996 228.179 679.004 228.179 678.245 226.792L673.21 217.585C673.026 217.25 672.75 216.974 672.415 216.79L663.208 211.755C661.821 210.996 661.821 209.004 663.208 208.245L672.415 203.21C672.75 203.026 673.026 202.75 673.21 202.415L678.245 193.208C679.004 191.821 680.996 191.821 681.755 193.208L686.79 202.415Z" fill="#6DA1FA"/>
<path d="M243.255 465.95C243.438 466.286 243.714 466.562 244.05 466.745L246.792 468.245C248.179 469.004 248.179 470.996 246.792 471.755L244.05 473.255C243.714 473.438 243.438 473.714 243.255 474.05L241.755 476.792C240.996 478.179 239.004 478.179 238.245 476.792L236.745 474.05C236.562 473.714 236.286 473.438 235.95 473.255L233.208 471.755C231.821 470.996 231.821 469.004 233.208 468.245L235.95 466.745C236.286 466.562 236.562 466.286 236.745 465.95L238.245 463.208C239.004 461.821 240.996 461.821 241.755 463.208L243.255 465.95Z" fill="#6DA1FA"/>
<path d="M763.255 385.95C763.438 386.286 763.714 386.562 764.05 386.745L766.792 388.245C768.179 389.004 768.179 390.996 766.792 391.755L764.05 393.255C763.714 393.438 763.438 393.714 763.255 394.05L761.755 396.792C760.996 398.179 759.004 398.179 758.245 396.792L756.745 394.05C756.562 393.714 756.286 393.438 755.95 393.255L753.208 391.755C751.821 390.996 751.821 389.004 753.208 388.245L755.95 386.745C756.286 386.562 756.562 386.286 756.745 385.95L758.245 383.208C759.004 381.821 760.996 381.821 761.755 383.208L763.255 385.95Z" fill="#6DA1FA"/>
<circle cx="200" cy="360" r="10" fill="#CEE0FD"/>
<circle cx="460" cy="320" r="200" fill="#CEE0FD"/>
<circle cx="105" cy="395" r="5" fill="#CEE0FD"/>
<circle cx="805" cy="245" r="5" fill="#CEE0FD"/>
<circle cx="740" cy="300" r="10" fill="#CEE0FD"/>
<ellipse cx="460" cy="320" rx="120" ry="120" fill="#00AD6E"/>
<ellipse cx="460" cy="320" rx="108.543" ry="108.543" fill="#33DD99"/>
<rect width="25.4834" height="87.0817" rx="12.7417" transform="matrix(0.707106 -0.707108 0.707106 0.707108 386.36 310.552)" fill="white"/>
<rect width="25.4834" height="120.287" rx="12.7417" transform="matrix(0.707106 0.707108 -0.707106 0.707108 514.907 268.946)" fill="white"/>
</svg>
