<svg width="16" height="17" viewBox="0 0 16 17" fill="currentColor" stroke="none" xmlns="http://www.w3.org/2000/svg">
<path fill-rule="evenodd" clip-rule="evenodd" d="M7.55279 0.105573C7.83432 -0.0351909 8.16569 -0.0351909 8.44722 0.105573L15.4472 3.60557C15.786 3.77496 16 4.12123 16 4.5C16 4.87877 15.786 5.22504 15.4472 5.39443L13.5599 6.33808L15.5547 7.66795C15.8513 7.86568 16.0202 8.20636 15.9981 8.56214C15.9759 8.91792 15.7661 9.23501 15.4472 9.39443L13.5599 10.3381L15.5547 11.6679C15.8513 11.8657 16.0202 12.2064 15.9981 12.5621C15.9759 12.9179 15.7661 13.235 15.4472 13.3944L8.44722 16.8944C8.16569 17.0352 7.83432 17.0352 7.55279 16.8944L0.552792 13.3944C0.233956 13.235 0.0240886 12.9179 0.00193841 12.5621C-0.0202117 12.2064 0.148705 11.8657 0.445306 11.6679L2.4401 10.3381L0.552792 9.39443C0.222932 9.2295 0.0106235 8.8964 0.000391014 8.52775C-0.00984149 8.15909 0.183663 7.81473 0.503867 7.63176L2.61487 6.42547L0.552792 5.39443C0.214008 5.22504 6.02798e-06 4.87877 6.02798e-06 4.5C6.02798e-06 4.12123 0.214008 3.77496 0.552792 3.60557L7.55279 0.105573ZM4.50042 11.3682L2.98848 12.3762L8.00001 14.882L13.0115 12.3762L11.4996 11.3682L8.44722 12.8944C8.16569 13.0352 7.83432 13.0352 7.55279 12.8944L4.50042 11.3682ZM8.44722 8.89443L11.4996 7.36824L13.0115 8.3762L8.00001 10.882L3.11847 8.4412L4.76481 7.50044L7.55279 8.89443C7.83432 9.03519 8.16569 9.03519 8.44722 8.89443ZM3.23607 4.5L8.00001 6.88197L12.7639 4.5L8.00001 2.11803L3.23607 4.5Z"/>
</svg>
