<svg width="16" height="16" viewBox="0 0 16 16" fill="none" stroke="currentColor" xmlns="http://www.w3.org/2000/svg">
<path d="M12.7834 8.07893L12.7833 8.0789C12.3293 7.62482 11.7903 7.40186 11.1371 7.40186C10.4756 7.40186 9.92456 7.63422 9.4555 8.11411L9.10199 8.47577L8.74438 8.11816L7.88163 7.25541L7.52396 6.89775L7.88574 6.54424C8.36469 6.07625 8.59793 5.52224 8.59793 4.85286C8.59793 4.19785 8.3771 3.66273 7.93062 3.21622L7.92979 3.21539L5.91018 1.1861L5.90683 1.18273L5.90685 1.18272C5.46036 0.725496 4.92354 0.5 4.26465 0.5C3.60966 0.5 3.07444 0.720949 2.62802 1.16737L2.62681 1.16858L2.6268 1.16858L1.18563 2.59991L1.18266 2.60285L1.18265 2.60284C0.724483 3.05033 0.5 3.58419 0.5 4.23529C0.5 4.88851 0.722954 5.42764 1.17707 5.88178L3.21621 7.92086C3.21622 7.92086 3.21622 7.92087 3.21623 7.92087C3.67047 8.37505 4.2095 8.59793 4.86272 8.59793C5.52413 8.59793 6.07534 8.36558 6.5442 7.88572L6.89771 7.52391L7.25539 7.8816L8.11814 8.74439L8.47575 9.10201L8.11406 9.45551C7.63509 9.92365 7.40183 10.4776 7.40183 11.147C7.40183 11.802 7.62264 12.337 8.06915 12.7836L8.06992 12.7844L10.0897 14.8136L10.093 14.8169L10.093 14.817C10.5397 15.2742 11.0763 15.4997 11.7351 15.4997C12.3902 15.4997 12.9251 15.2789 13.3718 14.8324L13.373 14.8312L14.8143 13.3999L14.8172 13.397L14.8172 13.397C15.2754 12.9494 15.5 12.4156 15.5 11.7646L12.7834 8.07893ZM12.7834 8.07893L14.8226 10.118M12.7834 8.07893L14.8226 10.118M7.2446 5.93296L6.89137 6.26532L6.54841 5.92237C6.52522 5.89918 6.46146 5.83378 6.36125 5.73017M7.2446 5.93296L5.4282 6.02845C5.39331 5.98073 5.38206 5.95098 5.37869 5.93892L5.37866 5.93881C5.36982 5.90723 5.36289 5.8634 5.36289 5.80396C5.36289 5.6734 5.4028 5.5789 5.49077 5.49097C5.57904 5.40276 5.67375 5.36285 5.80396 5.36285C5.86353 5.36285 5.90735 5.36979 5.93892 5.37863L6.07366 4.89712L5.93862 5.37854C5.95085 5.38197 5.98066 5.39328 6.02852 5.42817M7.2446 5.93296C7.55175 5.64396 7.7254 5.27695 7.72536 4.85293L7.2446 5.93296ZM6.36125 5.73017L6.72066 5.38256L6.36137 5.73029C6.36133 5.73025 6.36129 5.73021 6.36125 5.73017ZM6.36125 5.73017C6.25939 5.62492 6.19864 5.56469 6.17173 5.53997L6.50996 5.17173L6.17223 5.54042C6.15402 5.52374 6.11018 5.48799 6.02852 5.42817M6.02852 5.42817C6.02862 5.42824 6.02873 5.42832 6.02883 5.42839L6.32364 5.02455L6.0282 5.42793C6.02831 5.42801 6.02841 5.42809 6.02852 5.42817ZM9.67681 10.9754L9.97227 10.5721C9.89063 10.5123 9.84707 10.4767 9.82913 10.4601L9.82827 10.4594C9.80173 10.4351 9.74146 10.3753 9.63903 10.2695L9.63863 10.2691L9.61187 10.2415C9.52887 10.156 9.47202 10.0975 9.44948 10.0752L9.10689 9.7374L8.75614 10.0668C8.44842 10.3557 8.27491 10.7229 8.27491 11.1469C8.27491 11.5389 8.41756 11.8885 8.69518 12.1664C8.69535 12.1666 8.69552 12.1668 8.69569 12.1669L10.7144 14.1955L10.7152 14.1964C10.9929 14.4741 11.3454 14.6075 11.7353 14.6075C12.1168 14.6075 12.4621 14.4789 12.7421 14.2192L12.7484 14.2134L12.7544 14.2073L14.1957 12.7759L14.1968 12.7749C14.472 12.4999 14.6176 12.154 14.6176 11.7647C14.6176 11.3724 14.4746 11.0224 14.1966 10.7444L14.1966 10.7444L12.1575 8.70557C11.8797 8.42744 11.5298 8.28442 11.1373 8.28442C10.7178 8.28442 10.3527 8.45137 10.0668 8.75612L9.73313 9.1118L10.0804 9.45423C10.102 9.47557 10.1657 9.53754 10.2698 9.63834C10.3752 9.74073 10.4358 9.80175 10.461 9.82907L10.8285 9.49036L10.4604 9.82848C10.4764 9.84586 10.5113 9.88883 10.5724 9.97217L10.5728 9.97276C10.607 10.0193 10.6184 10.049 10.6221 10.062L11.1034 9.92665M9.67681 10.9754L9.97183 10.5718C10.0202 10.6071 10.0497 10.6181 10.0611 10.6213L10.0617 10.6215C10.0933 10.6303 10.137 10.6372 10.1965 10.6372C10.3269 10.6372 10.4214 10.5974 10.5098 10.5091L10.8632 10.8627M9.67681 10.9754C9.7619 11.0376 9.84507 11.0801 9.92686 11.1029C10.0087 11.1258 10.0984 11.1372 10.1965 11.1372C10.458 11.1372 10.6801 11.0457 10.8632 10.8627M9.67681 10.9754C9.59196 10.9133 9.52994 10.8643 9.49069 10.8282C9.45141 10.7923 9.38116 10.722 9.27986 10.6174L9.25978 10.5967C9.17056 10.5048 9.11684 10.4494 9.09843 10.4313C9.09842 10.4313 9.09842 10.4313 9.09841 10.4313C9.07439 10.4538 9.05171 10.4768 9.03037 10.5003L8.74735 10.7873C8.75607 10.7959 8.77891 10.8193 8.81829 10.8598C8.78937 10.9507 8.77491 11.0464 8.77491 11.1469L10.9757 9.6766C11.0381 9.76152 11.0804 9.84486 11.1034 9.92665M10.8632 10.8627L10.5095 10.5093C10.5978 10.421 10.6377 10.3262 10.6377 10.1962C10.6377 10.1377 10.6308 10.0934 10.6216 10.0605L11.1034 9.92665M10.8632 10.8627C11.046 10.6798 11.1377 10.4576 11.1377 10.1962C11.1377 10.0982 11.1261 10.0083 11.1034 9.92665M14.8226 10.118C14.8226 10.118 14.8227 10.118 14.8227 10.118M14.8226 10.118L14.8227 10.118M14.8227 10.118C15.277 10.5725 15.4998 11.1114 15.5 11.7645L14.8227 10.118ZM5.54052 6.17233C5.52374 6.15401 5.48779 6.10995 5.42822 6.02848L7.72536 4.85287C7.72535 4.46072 7.58257 4.11107 7.30499 3.83323C7.30482 3.83307 7.30465 3.8329 7.30448 3.83273L5.2858 1.80429L5.28491 1.80341C5.007 1.52555 4.65714 1.38253 4.26475 1.38253C3.88124 1.38253 3.53799 1.51993 3.25737 1.78109L3.25142 1.78663L3.24565 1.79235L1.80444 3.22381L1.80444 3.22381L1.80324 3.22501C1.528 3.50024 1.38236 3.8457 1.38236 4.23532C1.38236 4.62788 1.52546 4.97769 1.80314 5.25552L1.80325 5.25563L3.84259 7.29483C3.84259 7.29484 3.84259 7.29484 3.8426 7.29485C4.12024 7.57248 4.47317 7.70586 4.86278 7.70586C5.27675 7.70586 5.64043 7.54664 5.92781 7.24985L6.26977 6.89669L5.92247 6.54879C5.89908 6.52536 5.8331 6.46118 5.73027 6.36158C5.6246 6.25921 5.56478 6.19885 5.54054 6.17236L5.54052 6.17233Z"/>
</svg>
