<svg width="16" height="16" viewBox="0 0 16 16" fill="currentColor" xmlns="http://www.w3.org/2000/svg">
<path d="M15.1762 9.76447L13.1369 7.72536C12.588 7.17646 11.9215 6.90186 11.1371 6.90186C10.3397 6.90186 9.66012 7.18944 9.09793 7.76461L8.23518 6.90186C8.81038 6.33981 9.09793 5.65689 9.09793 4.85286C9.09793 4.06854 8.82673 3.40526 8.28418 2.86268L6.26458 0.833391C5.7221 0.277866 5.05546 0 4.26465 0C3.48032 0 2.81694 0.271341 2.27447 0.813818L0.833288 2.24514C0.277728 2.78776 0 3.45103 0 4.23529C0 5.01961 0.274569 5.68635 0.823501 6.23532L2.86268 8.27443C3.41175 8.82343 4.07839 9.09793 4.86272 9.09793C5.66002 9.09793 6.33978 8.81038 6.90183 8.23515L7.76458 9.09793C7.18941 9.66008 6.90183 10.343 6.90183 11.147C6.90183 11.9314 7.17303 12.5945 7.71554 13.1371L9.73532 15.1663C10.2779 15.7218 10.9443 15.9997 11.7351 15.9997C12.5195 15.9997 13.1826 15.7286 13.7253 15.186L15.1666 13.7547C15.7221 13.212 16 12.5488 16 11.7645C15.9998 10.9803 15.7253 10.3137 15.1762 9.76447ZM6.90196 5.56881C6.88236 5.54921 6.82182 5.48716 6.72066 5.38256C6.61943 5.27797 6.54914 5.20771 6.50996 5.17173C6.47071 5.13577 6.40859 5.08677 6.32364 5.02455C6.23855 4.96243 6.15531 4.92003 6.07366 4.89712C5.99193 4.87425 5.90203 4.86285 5.80396 4.86285C5.54261 4.86285 5.32034 4.9544 5.13732 5.13732C4.9543 5.32024 4.86289 5.54248 4.86289 5.80396C4.86289 5.90193 4.87429 5.99183 4.89716 6.07355C4.92003 6.15535 4.9625 6.23865 5.02459 6.32357C5.0867 6.40852 5.13574 6.47064 5.17166 6.50989C5.20751 6.54907 5.27776 6.61936 5.38236 6.72069C5.48695 6.82199 5.549 6.88239 5.56861 6.90203C5.3725 7.10456 5.13722 7.20586 4.86278 7.20586C4.59481 7.20586 4.37254 7.11768 4.19614 6.94128L2.15679 4.90207C1.97387 4.71904 1.88236 4.49681 1.88236 4.23532C1.88236 3.9805 1.97377 3.76159 2.15679 3.57857L3.598 2.14711C3.78765 1.97061 4.00975 1.88253 4.26475 1.88253C4.5261 1.88253 4.74833 1.97397 4.93139 2.15699L6.95093 4.18629C7.13395 4.36931 7.22536 4.59151 7.22536 4.85293C7.2254 5.12733 7.11757 5.36594 6.90196 5.56881ZM13.8434 12.4212L12.4021 13.8526C12.219 14.0224 11.9969 14.1075 11.7353 14.1075C11.4672 14.1075 11.2453 14.0194 11.0688 13.8428L9.04928 11.8134C8.86622 11.6303 8.77491 11.4082 8.77491 11.1469C8.77491 10.8724 8.88267 10.6339 9.09841 10.4313C9.11816 10.4507 9.17856 10.513 9.27986 10.6174C9.38116 10.722 9.45141 10.7923 9.49069 10.8282C9.52994 10.8643 9.59196 10.9133 9.67681 10.9754C9.7619 11.0376 9.84507 11.0801 9.92686 11.1029C10.0087 11.1258 10.0984 11.1372 10.1965 11.1372C10.458 11.1372 10.6801 11.0457 10.8632 10.8627C11.046 10.6798 11.1377 10.4576 11.1377 10.1962C11.1377 10.0982 11.1261 10.0083 11.1034 9.92665C11.0804 9.84486 11.0381 9.76152 10.9757 9.6766C10.9135 9.59175 10.8647 9.5295 10.8287 9.49021C10.7927 9.45121 10.7224 9.38091 10.6179 9.27938C10.5133 9.17811 10.4512 9.11768 10.4315 9.09821C10.6277 8.88902 10.863 8.78442 11.1373 8.78442C11.3988 8.78442 11.6209 8.87587 11.8038 9.05892L13.843 11.098C14.0261 11.2811 14.1176 11.5034 14.1176 11.7647C14.1176 12.0194 14.0261 12.2386 13.8434 12.4212Z"/>
</svg>
