<svg width="24" height="24" viewBox="0 0 24 24" fill="none" xmlns="http://www.w3.org/2000/svg"><path d="M13.46 10.54C12.8766 9.95675 12.0854 9.6291 11.2605 9.6291C10.4355 9.6291 9.64432 9.95675 9.0609 10.54L5.94979 13.6511C5.65264 13.9381 5.41563 14.2814 5.25258 14.661C5.08953 15.0405 5.00371 15.4488 5.00012 15.8619C4.99653 16.2749 5.07524 16.6846 5.23167 17.067C5.3881 17.4493 5.61911 17.7967 5.91122 18.0888C6.20333 18.3809 6.5507 18.6119 6.93304 18.7683C7.31538 18.9248 7.72505 19.0035 8.13814 18.9999C8.55124 18.9963 8.95948 18.9105 9.33904 18.7474C9.71861 18.5844 10.0619 18.3474 10.3489 18.0502L11.206 17.1939M10.6165 13.3835C11.1999 13.9668 11.9911 14.2944 12.816 14.2944C13.641 14.2944 14.4321 13.9668 15.0156 13.3835L18.1267 10.2724C18.6934 9.68567 19.007 8.8998 18.9999 8.08408C18.9928 7.26835 18.6656 6.48805 18.0888 5.91122C17.512 5.3344 16.7316 5.00721 15.9159 5.00012C15.1002 4.99303 14.3143 5.30661 13.7276 5.87333L12.872 6.72888" stroke="#000000" stroke-width="2" stroke-linecap="round" stroke-linejoin="round"/></svg>