<svg width="16" height="14" viewBox="0 0 16 14" fill="currentColor" xmlns="http://www.w3.org/2000/svg">
<path fill-rule="evenodd" clip-rule="evenodd" d="M-8.74228e-08 1C-3.91405e-08 0.447715 0.447715 3.91405e-08 1 8.74228e-08L15 1.31134e-06C15.5523 1.35962e-06 16 0.447717 16 1C16 1.55229 15.5523 2 15 2L1 2C0.447715 2 -1.35705e-07 1.55228 -8.74228e-08 1Z"/>
<path fill-rule="evenodd" clip-rule="evenodd" d="M5 7C5 6.44772 5.44772 6 6 6L15 6C15.5523 6 16 6.44771 16 7C16 7.55228 15.5523 8 15 8L6 8C5.44772 8 5 7.55228 5 7Z"/>
<path fill-rule="evenodd" clip-rule="evenodd" d="M-8.74228e-08 13C-3.91405e-08 12.4477 0.447715 12 1 12L15 12C15.5523 12 16 12.4477 16 13C16 13.5523 15.5523 14 15 14L1 14C0.447715 14 -1.35705e-07 13.5523 -8.74228e-08 13Z"/>
<path d="M4.76995e-08 4L3 7L-4.76837e-07 10L4.76995e-08 4Z"/>
</svg>
