<svg width="16" height="14" viewBox="0 0 16 14" fill="currentColor" xmlns="http://www.w3.org/2000/svg">
<path fill-rule="evenodd" clip-rule="evenodd" d="M4 1C4 0.447715 4.48842 -4.7443e-08 5.09091 -1.05967e-07L14.9091 -1.05967e-06C15.5116 -1.11819e-06 16 0.447714 16 0.999999C16 1.55228 15.5116 2 14.9091 2L5.09091 2C4.48842 2 4 1.55229 4 1Z"/>
<path fill-rule="evenodd" clip-rule="evenodd" d="M4 7C4 6.44772 4.48842 6 5.09091 6L14.9091 6C15.5116 6 16 6.44771 16 7C16 7.55228 15.5116 8 14.9091 8L5.09091 8C4.48842 8 4 7.55229 4 7Z"/>
<path fill-rule="evenodd" clip-rule="evenodd" d="M4 13C4 12.4477 4.48842 12 5.09091 12L14.9091 12C15.5116 12 16 12.4477 16 13C16 13.5523 15.5116 14 14.9091 14L5.09091 14C4.48842 14 4 13.5523 4 13Z"/>
<path fill-rule="evenodd" clip-rule="evenodd" d="M1 2C1.55228 2 2 1.55228 2 1C2 0.447715 1.55228 0 1 0C0.447715 0 0 0.447715 0 1C0 1.55228 0.447715 2 1 2Z"/>
<path fill-rule="evenodd" clip-rule="evenodd" d="M1 8C1.55228 8 2 7.55228 2 7C2 6.44772 1.55228 6 1 6C0.447715 6 0 6.44772 0 7C0 7.55228 0.447715 8 1 8Z"/>
<path fill-rule="evenodd" clip-rule="evenodd" d="M1 14C1.55228 14 2 13.5523 2 13C2 12.4477 1.55228 12 1 12C0.447715 12 0 12.4477 0 13C0 13.5523 0.447715 14 1 14Z"/>
</svg>
