<svg width="16" height="14" viewBox="0 0 16 14" fill="currentColor" xmlns="http://www.w3.org/2000/svg">
<path fill-rule="evenodd" clip-rule="evenodd" d="M6 3C6 2.44772 6.40701 2 6.90909 2L15.0909 2C15.593 2 16 2.44771 16 3C16 3.55228 15.593 4 15.0909 4L6.90909 4C6.40701 4 6 3.55229 6 3Z"/>
<path fill-rule="evenodd" clip-rule="evenodd" d="M6 11C6 10.4477 6.40701 10 6.90909 10L15.0909 10C15.593 10 16 10.4477 16 11C16 11.5523 15.593 12 15.0909 12L6.90909 12C6.40701 12 6 11.5523 6 11Z"/>
<path d="M3 6H1.5979V2.82353C1.5979 2.43776 1.6049 2.08482 1.61888 1.76471C1.53263 1.88782 1.42541 2.01642 1.2972 2.15048L0.716783 2.71272L0 1.67852L1.75524 0H3V6Z"/>
<path d="M4 14H0.0594243V12.9481L1.38533 11.4875C1.76416 11.056 2.01176 10.762 2.12813 10.6055C2.24451 10.4464 2.32498 10.3102 2.36955 10.1969C2.41659 10.0836 2.44011 9.96494 2.44011 9.84086C2.44011 9.68712 2.39431 9.56575 2.30269 9.47674C2.21108 9.38773 2.08233 9.34322 1.91643 9.34322C1.74559 9.34322 1.57227 9.39717 1.39647 9.50506C1.22315 9.61025 1.02631 9.76669 0.805942 9.97438L0 8.94673C0.27979 8.67431 0.515011 8.48011 0.705664 8.36413C0.896317 8.24545 1.10306 8.15509 1.32591 8.09305C1.55122 8.03102 1.80378 8 2.08357 8C2.43516 8 2.74838 8.06743 3.02321 8.20229C3.30053 8.33715 3.5147 8.53001 3.66574 8.78085C3.81925 9.029 3.89601 9.30816 3.89601 9.61834C3.89601 9.8503 3.86877 10.0647 3.8143 10.2616C3.7623 10.4585 3.68059 10.6527 3.56917 10.8442C3.45775 11.033 3.30919 11.2326 3.12349 11.443C2.94027 11.6534 2.54782 12.0526 1.94615 12.6406V12.6811H4V14Z"/>
</svg>
