<svg width="19" height="20" viewBox="0 0 19 20" fill="none" xmlns="http://www.w3.org/2000/svg">
<path fill-rule="evenodd" clip-rule="evenodd" d="M13.188 17.6205H5.81201C4.02819 17.6205 2.44405 16.8237 1.38197 15.575C1.90798 17.4363 3.55694 18.7952 5.52908 18.7952H13.4709C15.4361 18.7952 17.0826 17.4484 17.6137 15.5743C16.5526 16.8251 14.9715 17.6205 13.188 17.6205ZM1.20635 10.7229V11.8178C1.20635 14.3414 3.24946 16.4157 5.81201 16.4157H13.188C15.7505 16.4157 17.7937 14.3414 17.7937 11.7833V10.7229V5.80264C17.7937 3.27902 15.7505 1.20482 13.188 1.20482H5.81201C3.28409 1.20482 1.20635 3.24446 1.20635 5.80264V10.7229ZM19 11.7833V10.7229V5.80264C19 2.61904 16.4222 0 13.188 0H5.81201C2.62426 0 0 2.57267 0 5.80264V10.7229V11.8178V14.2987C0 17.3954 2.41166 20 5.52908 20H13.4709C16.5904 20 19 17.3983 19 14.2656V11.7833ZM11.5573 4.81928H11.6628C12.7178 4.81928 14.441 5.34389 14.4762 7.40735V11.2895C14.4762 11.6042 14.3707 11.849 14.1245 11.989C13.9135 12.1289 13.6322 12.1988 13.2454 12.1988C13.1399 12.1988 13.0343 12.1289 13.0343 12.0239V7.40735C13.0343 6.39313 12.1551 6.14831 11.6628 6.14831H11.5925C11.1353 6.14831 10.2209 6.42807 10.2209 7.40735V11.2895C10.2209 11.6042 10.1154 11.849 9.86926 11.989C9.65827 12.1289 9.37689 12.1988 8.99008 12.1988C8.88458 12.1988 8.77909 12.1289 8.77909 12.0239V7.40735C8.77909 6.39313 7.8999 6.14831 7.40753 6.14831H7.3372C6.88005 6.14831 5.96567 6.42807 5.96567 7.40735V11.2895C5.96567 11.6042 5.86017 11.849 5.614 11.989C5.403 12.1289 5.12166 12.1988 4.73481 12.1988C4.62931 12.1988 4.52381 12.1289 4.52381 12.0239V7.44235C4.52381 5.34389 6.24702 4.81928 7.30203 4.81928H7.40753C8.04056 4.81928 8.88458 5.02912 9.48239 5.58871C10.0803 4.99414 10.9243 4.81928 11.5573 4.81928Z" fill="white"/>
</svg>
