<svg width="20" height="20" viewBox="0 0 20 20" fill="none" xmlns="http://www.w3.org/2000/svg">
<circle cx="10" cy="10" r="10" fill="#FF6164"/>
<path d="M14.5019 7.20074C14.5019 6.08664 14.0593 5.01816 13.2715 4.23037C12.4837 3.44258 11.4152 3 10.3011 3C9.18701 3 8.11853 3.44258 7.33074 4.23037C6.54295 5.01816 6.10037 6.08664 6.10037 7.20074C6.10037 12.1016 4 13.5019 4 13.5019H16.6022C16.6022 13.5019 14.5019 12.1016 14.5019 7.20074Z" stroke="white" stroke-width="2" stroke-linecap="round" stroke-linejoin="round"/>
<path d="M11.5123 16.3027C11.3892 16.5149 11.2125 16.6911 10.9999 16.8135C10.7874 16.9359 10.5464 17.0004 10.3011 17.0004C10.0557 17.0004 9.81475 16.9359 9.60218 16.8135C9.38961 16.6911 9.21293 16.5149 9.08984 16.3027" stroke="white" stroke-width="2" stroke-linecap="round" stroke-linejoin="round"/>
</svg>
