<svg width="160" height="104" viewBox="0 0 160 104" fill="none" xmlns="http://www.w3.org/2000/svg">
<path d="M0 1.04C0 0.465623 0.467181 0 1.04348 0H158.957C159.533 0 160 0.465624 160 1.04V102.96C160 103.534 159.533 104 158.957 104H1.04348C0.467185 104 0 103.534 0 102.96V1.04Z" fill="#CEE0FD"/>
<path d="M3.47825 11.4404C3.47825 10.866 3.94543 10.4004 4.52173 10.4004H155.478C156.055 10.4004 156.522 10.866 156.522 11.4404V99.4937C156.522 100.068 156.055 100.534 155.478 100.534H4.52173C3.94543 100.534 3.47825 100.068 3.47825 99.4937V11.4404Z" fill="white"/>
<path d="M6.95651 5.20013C6.95651 6.15742 6.17787 6.93346 5.21738 6.93346C4.25688 6.93346 3.47825 6.15742 3.47825 5.20013C3.47825 4.24284 4.25688 3.4668 5.21738 3.4668C6.17787 3.4668 6.95651 4.24284 6.95651 5.20013Z" fill="white"/>
<path d="M6.95651 5.20013C6.95651 6.15742 6.17787 6.93346 5.21738 6.93346C4.25688 6.93346 3.47825 6.15742 3.47825 5.20013C3.47825 4.24284 4.25688 3.4668 5.21738 3.4668C6.17787 3.4668 6.95651 4.24284 6.95651 5.20013Z" fill="white"/>
<path d="M13.9131 5.20013C13.9131 6.15742 13.1344 6.93346 12.1739 6.93346C11.2134 6.93346 10.4348 6.15742 10.4348 5.20013C10.4348 4.24284 11.2134 3.4668 12.1739 3.4668C13.1344 3.4668 13.9131 4.24284 13.9131 5.20013Z" fill="white"/>
<path d="M13.9131 5.20013C13.9131 6.15742 13.1344 6.93346 12.1739 6.93346C11.2134 6.93346 10.4348 6.15742 10.4348 5.20013C10.4348 4.24284 11.2134 3.4668 12.1739 3.4668C13.1344 3.4668 13.9131 4.24284 13.9131 5.20013Z" fill="white"/>
<path d="M20.8696 5.20013C20.8696 6.15742 20.0909 6.93346 19.1304 6.93346C18.1699 6.93346 17.3913 6.15742 17.3913 5.20013C17.3913 4.24284 18.1699 3.4668 19.1304 3.4668C20.0909 3.4668 20.8696 4.24284 20.8696 5.20013Z" fill="white"/>
<path d="M20.8696 5.20013C20.8696 6.15742 20.0909 6.93346 19.1304 6.93346C18.1699 6.93346 17.3913 6.15742 17.3913 5.20013C17.3913 4.24284 18.1699 3.4668 19.1304 3.4668C20.0909 3.4668 20.8696 4.24284 20.8696 5.20013Z" fill="white"/>
<path d="M10.4348 20.1064C10.4348 19.532 10.902 19.0664 11.4783 19.0664H145.043C145.62 19.0664 146.087 19.532 146.087 20.1064V42.2931C146.087 42.8674 145.62 43.3331 145.043 43.3331H11.4783C10.902 43.3331 10.4348 42.8674 10.4348 42.2931V20.1064Z" fill="#CEE0FD"/>
<path d="M10.4348 51.3056C10.4348 50.7312 10.902 50.2656 11.4783 50.2656H47.6522C48.2285 50.2656 48.6957 50.7312 48.6957 51.3056V76.959C48.6957 77.5333 48.2285 77.999 47.6522 77.999H11.4783C10.902 77.999 10.4348 77.5333 10.4348 76.959V51.3056Z" fill="#CEE0FD"/>
<path d="M107.826 51.3056C107.826 50.7312 108.293 50.2656 108.87 50.2656H145.043C145.62 50.2656 146.087 50.7312 146.087 51.3056V76.959C146.087 77.5333 145.62 77.999 145.043 77.999H108.87C108.293 77.999 107.826 77.5333 107.826 76.959V51.3056Z" fill="#CEE0FD"/>
<path d="M59.1304 51.3056C59.1304 50.7312 59.5976 50.2656 60.1739 50.2656H96.3478C96.9241 50.2656 97.3913 50.7312 97.3913 51.3056V76.959C97.3913 77.5333 96.9241 77.999 96.3478 77.999H60.1739C59.5976 77.999 59.1304 77.5333 59.1304 76.959V51.3056Z" fill="#CEE0FD"/>
<path d="M60.8695 85.9736C60.8695 85.3992 61.3367 84.9336 61.913 84.9336H94.6087C95.185 84.9336 95.6521 85.3992 95.6521 85.9736V90.8269C95.6521 91.4013 95.185 91.8669 94.6087 91.8669H61.913C61.3367 91.8669 60.8695 91.4013 60.8695 90.8269V85.9736Z" fill="#CEE0FD"/>
<path d="M12.1739 85.9736C12.1739 85.3992 12.6411 84.9336 13.2174 84.9336H45.913C46.4893 84.9336 46.9565 85.3992 46.9565 85.9736V90.8269C46.9565 91.4013 46.4893 91.8669 45.913 91.8669H13.2174C12.6411 91.8669 12.1739 91.4013 12.1739 90.8269V85.9736Z" fill="#CEE0FD"/>
<path d="M109.565 85.9736C109.565 85.3992 110.032 84.9336 110.609 84.9336H143.304C143.881 84.9336 144.348 85.3992 144.348 85.9736V90.8269C144.348 91.4013 143.881 91.8669 143.304 91.8669H110.609C110.032 91.8669 109.565 91.4013 109.565 90.8269V85.9736Z" fill="#CEE0FD"/>
</svg>
