<svg width="17" height="18" viewBox="0 0 17 18" fill="currentColor" xmlns="http://www.w3.org/2000/svg">
<path fill-rule="evenodd" clip-rule="evenodd" d="M0.292893 14.435C-0.097631 14.8256 -0.0976311 15.4587 0.292893 15.8492C0.515765 16.0721 0.817665 16.1678 1.10839 16.1363C1.44615 17.2464 2.52828 18 3.71429 18H12.2857C13.7187 18 15 16.8998 15 15.4V2.60004C15 2.58556 14.9999 2.57112 14.9996 2.55671L15.8492 1.70711C16.2398 1.31658 16.2398 0.683418 15.8492 0.292894C15.4587 -0.0976307 14.8256 -0.0976317 14.435 0.292894L14.0792 0.64869C13.5912 0.240054 12.955 4.47072e-05 12.2857 4.47072e-05H3.71429C2.28133 4.47072e-05 1 1.10024 1 2.60004V13.7279L0.292893 14.435ZM3 14.5563V15.4C3 15.6676 3.25369 16 3.71429 16H12.2857C12.7463 16 13 15.6676 13 15.4V4.55635L3 14.5563ZM12.6469 2.08098L3 11.7279V2.60004C3 2.33254 3.25369 2.00004 3.71429 2.00004H12.2857C12.4257 2.00004 12.5465 2.03074 12.6469 2.08098ZM9 13C9 13.5523 8.55229 14 8 14C7.44772 14 7 13.5523 7 13C7 12.4478 7.44772 12 8 12C8.55229 12 9 12.4478 9 13Z"/>
</svg>
