<svg width="16" height="16" viewBox="0 0 16 16" stroke="none" fill="currentColor" xmlns="http://www.w3.org/2000/svg">
<path fill-rule="evenodd" clip-rule="evenodd" d="M5.97456 14.6008C5.81048 14.7649 5.60643 14.8833 5.38257 14.9443L1.68418 15.953C1.22257 16.0789 0.728887 15.9478 0.390554 15.6094C0.0522216 15.2711 -0.0788827 14.7774 0.0470124 14.3158L1.05566 10.6174C1.11672 10.3936 1.23513 10.1895 1.39921 10.0254L10.4771 0.947586C10.7775 0.647165 11.1341 0.408857 11.5267 0.246269C11.9192 0.0836821 12.3399 0 12.7647 0C13.1896 0 13.6103 0.0836825 14.0028 0.246269C14.3953 0.408856 14.752 0.647164 15.0524 0.947586C15.3528 1.24801 15.5911 1.60466 15.7537 1.99718C15.9163 2.3897 16 2.8104 16 3.23526C16 3.66012 15.9163 4.08082 15.7537 4.47334C15.5911 4.86586 15.3528 5.22251 15.0524 5.52294L5.97456 14.6008ZM2.34201 10.9683L11.4199 1.89039C11.5965 1.71378 11.8061 1.57369 12.0369 1.47811C12.2677 1.38253 12.515 1.33333 12.7647 1.33333C13.0145 1.33333 13.2618 1.38253 13.4926 1.47811C13.7233 1.57369 13.933 1.71378 14.1096 1.89039C14.2862 2.067 14.4263 2.27667 14.5219 2.50742C14.6175 2.73818 14.6667 2.9855 14.6667 3.23526C14.6667 3.48503 14.6175 3.73235 14.5219 3.9631C14.4263 4.19385 14.2862 4.40352 14.1096 4.58013L5.03175 13.658L1.33336 14.6666L2.34201 10.9683Z"/>
</svg>
