<svg width="16" height="16" viewBox="0 0 16 16" fill="currentColor" xmlns="http://www.w3.org/2000/svg">
<path fill-rule="evenodd" clip-rule="evenodd" d="M2 2L2 14H4L9.7 6.4C9.87945 6.16073 10.1566 6.01435 10.4554 6.001C10.7541 5.98765 11.0432 6.10873 11.2433 6.33104L14 9.39404L14 2L2 2ZM14 14H6.5L10.5703 8.57295L14 12.3837V14ZM0 2V14C0 15.1046 0.89543 16 2 16H14C15.1046 16 16 15.1046 16 14L16 2C16 0.895431 15.1046 0 14 0H2C0.895431 0 0 0.895431 0 2ZM5 6C5.55228 6 6 5.55228 6 5C6 4.44772 5.55228 4 5 4C4.44772 4 4 4.44772 4 5C4 5.55228 4.44772 6 5 6Z"/>
</svg>
