<svg width="16" height="16" viewBox="0 0 16 16" fill="none" stroke="currentColor" xmlns="http://www.w3.org/2000/svg">
<path d="M1 14L1 2C1 1.44771 1.44772 0.999999 2 0.999999L14 1C14.5523 1 15 1.44772 15 2L15 14C15 14.5523 14.5523 15 14 15L2 15C1.44772 15 0.999999 14.5523 1 14Z" stroke-width="2"/>
<path d="M4.5 15L9.77029 7.97295C10.1482 7.46906 10.8922 7.43581 11.3136 7.90398L15 12" stroke-width="2" stroke-linejoin="round"/>
<path d="M5.5 5C5.5 5.27614 5.27614 5.5 5 5.5C4.72386 5.5 4.5 5.27614 4.5 5C4.5 4.72386 4.72386 4.5 5 4.5C5.27614 4.5 5.5 4.72386 5.5 5Z" stroke-width="2"/>
</svg>
