<svg width="327" height="529" viewBox="0 0 327 529" fill="none" xmlns="http://www.w3.org/2000/svg">
<path d="M173.017 526.249C169.837 527.729 166.378 528.513 162.87 528.55C145.317 528.55 124.833 500.782 116.86 488.868C106.587 473.55 89.3492 442.756 89.4437 408.715C89.9264 394.886 93.0164 381.273 98.5511 368.591C96.6192 367.001 94.8557 365.216 93.2884 363.265L65.4621 388.827L64.9263 389.299C62.008 391.762 58.7628 393.81 55.2832 395.383C49.9487 397.893 44.081 399.059 38.1923 398.779C32.3036 398.498 26.5729 396.781 21.5008 393.775C13.7867 388.908 8.24497 381.254 6.02772 372.405C-2.25729 339.399 -1.06664 304.724 9.46276 272.364C16.7023 250.259 28.1648 229.771 43.2136 212.037C45.6086 120.632 87.616 29.2268 138.573 6.43862C146.652 2.69107 155.446 0.734219 164.351 0.702148C230.529 0.891262 282.022 113.162 284.26 212.51C299.3 230.36 310.702 250.983 317.822 273.215C328.185 305.569 329.201 340.193 320.752 373.099C318.481 382.026 312.832 389.722 304.996 394.563C303.821 395.284 302.6 395.927 301.34 396.486C294.766 399.24 287.547 400.08 280.516 398.909C273.485 397.738 266.928 394.604 261.602 389.867L261.034 389.362L233.271 363.58C231.663 365.545 229.869 367.35 227.914 368.97C233.391 381.671 236.407 395.298 236.8 409.125C236.8 461.005 195.392 516.069 173.017 526.249Z" fill="#CEE0FD"/>
<path d="M300.836 278.541C293.726 256.528 282.005 236.284 266.454 219.16C266.454 118.299 214.962 18.5732 164.288 18.4471C113.614 18.3211 61.4283 117.763 60.924 218.75C45.3081 235.743 33.4909 255.868 26.2593 277.785C16.8048 306.894 15.7129 338.073 23.108 367.772C24.1835 372.147 26.8742 375.953 30.6397 378.425C34.2302 380.347 38.3306 381.1 42.3694 380.58C46.4083 380.06 50.1845 378.293 53.1718 375.525L95.5888 336.915C97.126 337.387 98.7118 337.683 100.316 337.797C101.765 341.359 103.31 344.826 104.917 348.135C106.564 351.438 109.074 354.234 112.181 356.226C115.288 358.218 118.876 359.333 122.564 359.451C115.537 373.224 107.532 391.537 107.469 408.652C107.469 459.807 154.078 510.521 163.091 510.553C173.868 510.553 219.09 460.122 219.247 408.936C219.247 391.852 211.369 373.508 204.405 359.671C208.1 359.582 211.703 358.492 214.828 356.516C217.952 354.54 220.482 351.752 222.147 348.451C223.785 345.299 225.298 341.706 226.842 338.144C228.468 338.042 230.077 337.746 231.632 337.261L273.513 376.124C276.465 378.945 280.228 380.768 284.271 381.333C288.315 381.899 292.433 381.179 296.046 379.276C299.816 376.823 302.509 373.024 303.577 368.654C311.104 338.951 310.154 307.732 300.836 278.541Z" fill="white"/>
<path d="M40.6606 376.503C38.4416 376.506 36.2632 375.907 34.3579 374.769C31.5409 372.886 29.5465 370.001 28.78 366.7C21.6184 337.794 22.7102 307.457 31.9313 279.14C39.3309 256.57 51.6929 235.946 68.1088 218.782L96.1872 331.399L51.7217 372.374C48.7018 374.975 44.8662 376.436 40.8812 376.503H40.6606Z" fill="#CEE0FD"/>
<path d="M65.6506 227.639L83.2351 298.178L91.1765 329.949L71.7642 347.852L48.7279 369.064C46.4856 371.019 43.6337 372.133 40.6605 372.216C39.1984 372.242 37.7581 371.86 36.5007 371.113C34.6825 369.806 33.3871 367.896 32.8452 365.723C25.8619 337.637 26.8881 308.155 35.8074 280.622C42.1612 261.202 52.3048 243.236 65.6506 227.765V227.639ZM70.2201 210.461C50.6695 229.095 36.0324 252.278 27.6139 277.943C18.2096 307.06 17.1182 338.225 24.4626 367.929C25.536 372.297 28.2136 376.1 31.9628 378.583C34.5776 380.157 37.5773 380.975 40.629 380.947C45.6963 380.871 50.5739 379.007 54.4003 375.683L100.725 332.944L70.3776 210.335L70.2201 210.461Z" fill="#3C82F8"/>
<path d="M52.699 283.711C38.7692 307.771 31.6856 335.183 32.2152 362.981C25.3126 335.002 26.526 305.635 35.7132 278.321C44.3012 253.409 59.018 231.059 78.5083 213.329C81.0924 223.289 83.6871 233.249 86.2922 243.209C72.8966 254.724 61.5396 268.417 52.699 283.711Z" fill="#6DA1FA"/>
<path d="M287.285 377.196C283.214 377.102 279.308 375.573 276.255 372.878L232.136 331.903L260.845 219.444C277.171 236.706 289.425 257.405 296.707 280.023C305.739 308.418 306.613 338.779 299.228 367.646C298.421 370.912 296.42 373.757 293.619 375.62C291.689 376.71 289.5 377.255 287.285 377.196Z" fill="#CEE0FD"/>
<path d="M263.051 228.175C276.328 243.706 286.377 261.729 292.61 281.189C301.396 308.763 302.258 338.251 295.1 366.291C294.602 368.508 293.285 370.456 291.413 371.743C290.165 372.483 288.734 372.854 287.285 372.815C284.303 372.726 281.443 371.613 279.186 369.663L256.307 348.356L236.989 330.359L250.162 278.7L263.051 228.269V228.175ZM258.576 210.965L227.378 333.259L273.45 376.251C277.28 379.622 282.183 381.522 287.285 381.609C290.312 381.633 293.287 380.826 295.888 379.276C299.7 376.834 302.447 373.039 303.577 368.655C311.11 339.002 310.204 307.833 300.961 278.668C292.694 252.95 278.174 229.687 258.702 210.965H258.576Z" fill="#3C82F8"/>
<path d="M275.719 284.404C289.516 308.568 296.447 336.045 295.761 363.863C302.763 335.884 301.67 306.491 292.61 279.109C284.158 254.125 269.561 231.667 250.162 213.802L242.22 243.681C255.594 255.277 266.919 269.044 275.719 284.404Z" fill="#6DA1FA"/>
<path d="M163.5 506.077C155.747 504.249 112.479 456.782 112.605 408.652C112.605 388.48 124.99 365.408 131.514 353.021C131.764 352.985 132.019 352.985 132.27 353.021C132.932 353.021 133.625 353.021 134.35 353.021C135.075 353.021 136.43 353.179 137.501 353.179L190.192 353.337C191.326 353.337 192.366 353.336 193.343 353.179H195.391C195.706 353.149 196.022 353.149 196.337 353.179C202.639 365.566 214.93 388.732 214.867 408.904C214.835 458.956 171.22 505.037 163.5 506.077Z" fill="#6DA1FA"/>
<path d="M134.255 357.56C135.232 357.56 136.335 357.56 137.564 357.56L190.349 357.717C191.547 357.717 192.65 357.717 193.501 357.56C200.055 370.167 210.423 390.938 210.36 408.778C210.36 452.495 174.12 494.699 163.626 500.939C152.281 493.785 116.829 450.509 116.955 408.526C116.955 390.655 127.48 369.884 134.129 357.402L134.255 357.56ZM132.239 348.325C131.306 348.204 130.358 348.368 129.52 348.795C128.682 349.223 127.993 349.894 127.543 350.72C120.169 364.935 108.194 387.566 108.194 408.652C108.194 459.839 154.582 510.521 163.563 510.553C174.341 510.553 219.342 460.122 219.499 408.967C219.499 388.007 207.713 365.187 200.276 351.098C199.829 350.261 199.137 349.579 198.292 349.146C197.447 348.712 196.49 348.547 195.549 348.671C193.973 348.671 192.24 348.923 190.412 348.923L137.722 348.766C135.863 348.766 134.066 348.482 132.491 348.482L132.239 348.325Z" fill="#3C82F8"/>
<path d="M180.36 338.743C183.007 338.743 185.402 337.829 186.662 340.224C191.295 349.68 198.669 365.25 198.606 379.465C198.606 414.136 170.496 448.429 163.941 448.397C158.332 448.397 129.277 414.01 129.497 379.276C129.497 365.061 136.966 349.617 141.661 340.098C142.827 337.703 145.222 338.648 147.964 338.648L180.36 338.743Z" fill="#CEE0FD"/>
<path d="M179.131 316.932C181.557 316.932 183.763 316.207 184.835 318.13C189.089 325.82 195.864 338.27 195.833 349.649C195.833 377.606 169.96 405.122 163.784 405.122C158.647 405.122 131.987 377.417 132.05 349.491C132.05 338.05 138.951 325.631 143.237 317.972C144.308 316.049 146.388 316.837 148.941 316.837L179.131 316.932Z" fill="white"/>
<path d="M123.951 355.038C120.989 355.047 118.085 354.221 115.571 352.654C113.057 351.088 111.035 348.844 109.738 346.181C104.701 335.718 100.619 324.82 97.5425 313.622L230.813 314.001C227.708 325.217 223.584 336.126 218.491 346.591C217.182 349.247 215.152 351.481 212.633 353.036C210.114 354.592 207.207 355.406 204.247 355.385L123.951 355.038Z" fill="#3A63F1"/>
<path d="M103.404 318.224L224.667 318.539C221.901 327.472 218.445 336.176 214.331 344.574C213.387 346.486 211.921 348.093 210.103 349.208C208.286 350.323 206.19 350.902 204.058 350.878L123.95 350.562C121.824 350.577 119.737 349.994 117.926 348.879C116.115 347.765 114.654 346.164 113.709 344.259C109.643 335.844 106.23 327.13 103.498 318.192L103.404 318.224ZM91.7122 309.21C95.016 322.651 99.6942 335.716 105.673 348.199C107.363 351.6 109.97 354.462 113.2 356.461C116.429 358.46 120.152 359.518 123.95 359.514L204.152 359.734C207.942 359.739 211.658 358.685 214.882 356.691C218.105 354.698 220.709 351.844 222.398 348.451C228.459 336.012 233.211 322.977 236.579 309.556L91.6177 309.146L91.7122 309.21Z" fill="#3C82F8"/>
<path d="M102.332 333.448C99.3671 333.454 96.4604 332.623 93.9463 331.051C91.4321 329.479 89.4125 327.229 88.1197 324.56C74.0332 295.846 66.344 258.37 66.47 219.318C66.7221 122.05 116.324 22.9546 164.76 22.9546C213.196 22.9546 262.452 122.46 262.168 219.853C262.168 259 254.164 296.35 239.92 325.001C238.607 327.651 236.575 329.878 234.056 331.428C231.537 332.977 228.633 333.787 225.676 333.763L102.332 333.448Z" fill="white"/>
<path d="M164.918 18.51V27.4299C185.307 27.4299 208.501 49.1465 226.905 85.3618C246.632 124.162 257.883 173.205 257.757 219.853C257.757 258.338 249.91 294.963 235.981 323.015C235.031 324.922 233.564 326.525 231.747 327.639C229.931 328.754 227.838 329.336 225.708 329.319L102.427 328.972C100.302 328.983 98.2154 328.398 96.4052 327.284C94.595 326.17 93.1331 324.571 92.1852 322.668C78.4139 294.553 70.8821 257.865 71.0082 219.381C71.0082 172.764 82.6366 123.846 102.522 85.1411C121.115 49.0519 144.371 27.493 164.792 27.493V18.5731L164.918 18.51ZM164.792 18.5731C114.371 18.5731 62.3105 118.299 62.0269 219.349C62.0269 260.796 70.4724 298.745 84.0862 326.513C85.7671 329.918 88.3666 332.785 91.5909 334.79C94.8152 336.796 98.5358 337.859 102.333 337.86L225.644 338.207C229.43 338.211 233.143 337.16 236.365 335.173C239.588 333.185 242.194 330.34 243.891 326.955C257.694 299.186 266.486 261.269 266.612 219.79C266.895 118.74 215.34 18.7937 164.918 18.51L164.792 18.5731Z" fill="#3C82F8"/>
<path d="M104.476 305.301H118.972C242.473 305.648 228.827 46.5621 140.212 46.31C138.097 46.3169 135.987 46.5173 133.909 46.9088C141.315 41.7397 156.158 38.8716 163.752 38.9031C205.949 38.9031 248.838 127.156 248.618 216.166C248.618 256.132 239.7 292.41 226.243 317.279C225.837 318.206 225.172 318.997 224.328 319.556C223.484 320.115 222.497 320.419 221.485 320.431L108.037 320.115C98.551 320.084 93.4143 305.27 104.476 305.301Z" fill="#CEE0FD"/>
<path d="M109.801 63.7086C127.102 37.7054 146.829 22.9546 164.918 22.9546C183.007 22.9546 202.734 37.8631 219.814 63.9292L109.801 63.7086Z" fill="#6DA1FA"/>
<path d="M164.918 18.51V27.4299C179.761 27.4299 196.18 38.9974 211.18 59.5162L118.436 59.2642C133.562 38.8399 149.949 27.4299 164.824 27.4299V18.51H164.918ZM164.824 18.51C142.575 18.51 120.043 37.8627 101.797 68.1524L227.851 68.4992C209.699 38.0519 187.261 18.573 164.824 18.51Z" fill="#3C82F8"/>
<path d="M153.51 36.2554C174.12 27.8399 193.438 49.588 201.032 59.4849H174.656C169.333 50.3302 162.125 42.4119 153.51 36.2554Z" fill="#CEE0FD"/>
<path d="M132.774 240.12H198.133C203.496 240.145 208.811 239.112 213.775 237.079C218.738 235.046 223.251 232.055 227.057 228.275C230.862 224.495 233.885 220.002 235.951 215.052C238.018 210.102 239.088 204.793 239.101 199.429L239.258 146.036C239.283 140.672 238.25 135.356 236.217 130.392C234.185 125.428 231.194 120.914 227.415 117.107C223.636 113.301 219.143 110.278 214.194 108.211C209.245 106.144 203.937 105.074 198.574 105.061L133.216 104.872C122.394 104.872 112.012 109.154 104.336 116.784C96.6603 124.414 92.3147 134.771 92.2481 145.595V198.673C92.1857 204.056 93.1847 209.399 95.188 214.397C97.1913 219.394 100.16 223.947 103.923 227.796C107.687 231.646 112.172 234.715 117.123 236.83C122.073 238.944 127.392 240.062 132.774 240.12Z" fill="#CEE0FD"/>
<path d="M137.186 226.598C133.119 226.599 129.093 225.789 125.343 224.214C121.593 222.639 118.195 220.331 115.348 217.426C109.56 211.548 106.341 203.613 106.398 195.363V149.408C106.439 141.238 109.709 133.415 115.495 127.646C121.28 121.878 129.112 118.631 137.281 118.614L194.005 118.772C198.057 118.784 202.066 119.595 205.804 121.157C209.543 122.719 212.937 125.002 215.793 127.877C218.649 130.751 220.911 134.159 222.45 137.908C223.989 141.656 224.774 145.671 224.762 149.723V195.962C224.737 204.132 221.477 211.96 215.694 217.731C209.912 223.503 202.079 226.748 193.91 226.756L137.186 226.598Z" fill="#6DA1FA"/>
<path d="M137.407 114.139V123.059H194.131C201.133 123.1 207.833 125.911 212.77 130.878C217.706 135.845 220.476 142.563 220.476 149.566V195.804C220.435 202.799 217.627 209.493 212.668 214.424C207.708 219.355 200.998 222.123 194.005 222.123H137.281C130.246 222.064 123.522 219.218 118.583 214.207C113.644 209.196 110.894 202.431 110.936 195.395V149.409C110.961 142.417 113.753 135.72 118.702 130.782C123.651 125.844 130.353 123.067 137.344 123.059V114.139H137.407ZM137.344 114.139C127.988 114.13 119.012 117.837 112.388 124.445C105.764 131.052 102.034 140.02 102.017 149.377L101.891 195.3C101.854 199.963 102.737 204.588 104.491 208.908C106.244 213.229 108.833 217.161 112.109 220.479C115.386 223.796 119.284 226.435 123.582 228.242C127.88 230.049 132.493 230.991 137.155 231.011H193.879C203.232 231.011 212.203 227.301 218.825 220.696C225.447 214.09 229.18 205.127 229.205 195.773V149.503C229.226 144.861 228.33 140.26 226.57 135.965C224.809 131.67 222.217 127.764 218.944 124.473C215.671 121.181 211.78 118.569 207.495 116.785C203.21 115 198.615 114.08 193.973 114.076H137.249L137.344 114.139Z" fill="#3C82F8"/>
<path d="M204.562 331.683L195.108 353.431C194.913 353.861 194.805 354.326 194.789 354.798C194.774 355.27 194.852 355.741 195.019 356.183C195.186 356.625 195.438 357.03 195.762 357.374C196.085 357.719 196.474 357.996 196.904 358.19L198.228 358.789C198.662 358.984 199.131 359.091 199.607 359.104C200.083 359.118 200.557 359.037 201.002 358.868C201.446 358.698 201.854 358.442 202.199 358.115C202.545 357.788 202.824 357.396 203.018 356.961L212.472 335.213C212.857 334.342 212.885 333.355 212.549 332.465C212.213 331.574 211.54 330.852 210.676 330.453L209.352 329.854C208.918 329.655 208.449 329.545 207.972 329.529C207.495 329.514 207.02 329.593 206.574 329.763C206.128 329.934 205.72 330.191 205.375 330.52C205.029 330.85 204.753 331.245 204.562 331.683Z" fill="#3C82F8"/>
<path d="M136.556 131.569H191.484C194.282 131.57 196.981 132.607 199.058 134.482C201.136 136.356 202.446 138.934 202.734 141.718C202.816 143.162 202.601 144.608 202.104 145.967C201.607 147.326 200.838 148.568 199.843 149.619C198.849 150.67 197.651 151.506 196.321 152.077C194.992 152.648 193.561 152.941 192.114 152.939H144.844C144.403 152.916 143.963 152.986 143.551 153.144C143.14 153.303 142.766 153.546 142.454 153.858C142.142 154.17 141.899 154.544 141.741 154.955C141.583 155.367 141.512 155.807 141.535 156.248V194.764C141.535 197.584 140.417 200.289 138.426 202.286C136.436 204.283 133.735 205.409 130.915 205.418C128.087 205.418 125.375 204.296 123.372 202.299C121.37 200.302 120.24 197.593 120.232 194.764V148.022C120.201 140.772 129.434 131.569 136.556 131.569Z" fill="#CEE0FD"/>
<path d="M180.297 144.208H179.572C177.003 144.123 174.443 144.551 172.041 145.465C169.639 146.38 167.442 147.763 165.58 149.534C161.761 146.056 156.785 144.124 151.619 144.113H150.895C143.804 144.113 132.176 147.738 131.987 162.363V194.291C132.026 194.64 132.2 194.959 132.47 195.183C132.74 195.406 133.087 195.516 133.436 195.489C135.509 195.624 137.574 195.13 139.361 194.071C140.164 193.55 140.809 192.82 141.225 191.958C141.642 191.097 141.815 190.138 141.724 189.185V162.142C141.736 160.952 141.987 159.776 142.463 158.685C142.939 157.594 143.63 156.61 144.495 155.792C145.36 154.974 146.381 154.339 147.497 153.924C148.612 153.51 149.8 153.325 150.989 153.38H151.462C152.66 153.291 153.863 153.455 154.993 153.86C156.124 154.264 157.158 154.901 158.027 155.73C158.897 156.558 159.584 157.559 160.043 158.669C160.503 159.779 160.725 160.973 160.695 162.174V194.354C160.707 194.528 160.754 194.698 160.831 194.854C160.909 195.011 161.017 195.15 161.149 195.264C161.281 195.378 161.434 195.465 161.599 195.52C161.765 195.575 161.939 195.597 162.113 195.584C164.19 195.72 166.258 195.213 168.038 194.134C168.839 193.618 169.485 192.893 169.907 192.038C170.329 191.183 170.511 190.23 170.433 189.28V162.205C170.449 161.017 170.703 159.845 171.181 158.758C171.659 157.67 172.351 156.69 173.215 155.875C174.079 155.061 175.099 154.429 176.212 154.016C177.326 153.604 178.512 153.419 179.698 153.474H180.171C181.368 153.386 182.571 153.549 183.702 153.954C184.833 154.359 185.866 154.996 186.736 155.824C187.606 156.653 188.293 157.654 188.752 158.764C189.212 159.874 189.434 161.067 189.404 162.268V194.449C189.436 194.795 189.603 195.114 189.868 195.338C190.133 195.562 190.476 195.673 190.822 195.647C192.895 195.79 194.963 195.295 196.747 194.228C197.558 193.715 198.211 192.986 198.634 192.124C199.057 191.262 199.232 190.299 199.142 189.343V162.3C199.016 148.022 187.419 144.208 180.297 144.208Z" fill="white"/>
<path d="M163.878 376.944C158.332 374.013 148.563 338.806 148.689 294.301C148.551 280.233 149.989 266.193 152.974 252.444C153.614 250.004 155.084 247.863 157.132 246.39C159.18 244.917 161.677 244.205 164.193 244.375C166.723 244.2 169.235 244.918 171.29 246.404C173.346 247.89 174.816 250.049 175.444 252.507C178.361 266.274 179.735 280.324 179.54 294.396C179.414 338.901 169.425 374.044 163.878 376.944Z" fill="#CEE0FD"/>
<path d="M164.193 248.536C165.233 248.536 170.496 248.756 171.378 253.39C174.237 266.855 175.569 280.6 175.349 294.364C175.349 329.539 168.826 358.758 163.878 369.537C159.025 358.726 152.754 329.476 152.848 294.301C152.708 280.529 154.114 266.785 157.04 253.326C158.079 248.725 163.185 248.504 164.193 248.504V248.536ZM164.193 240.152C160.719 239.972 157.292 241.01 154.502 243.087C151.712 245.164 149.734 248.15 148.909 251.53C145.849 265.557 144.369 279.882 144.497 294.238C144.497 337.924 154.172 381.104 163.846 381.136C173.521 381.136 183.542 338.018 183.668 294.364C183.878 279.997 182.482 265.651 179.509 251.593C178.678 248.199 176.692 245.201 173.891 243.113C171.091 241.026 167.65 239.978 164.162 240.152H164.193Z" fill="#6DA1FA"/>
</svg>
