<svg width="920" height="600" viewBox="0 0 920 600" fill="none" xmlns="http://www.w3.org/2000/svg">
<rect width="920" height="600" rx="6" fill="#6DA1FA"/>
<rect x="20" y="60" width="880" height="520" rx="6" fill="white"/>
<circle cx="30" cy="30" r="10" fill="white"/>
<circle cx="30" cy="30" r="10" fill="white"/>
<circle cx="70" cy="30" r="10" fill="white"/>
<circle cx="70" cy="30" r="10" fill="white"/>
<circle cx="110" cy="30" r="10" fill="white"/>
<circle cx="110" cy="30" r="10" fill="white"/>
<path fill-rule="evenodd" clip-rule="evenodd" d="M460 320C460 347.017 451.072 371.949 436.005 392.006C434.31 389.745 432.448 387.595 430.426 385.574C419.174 374.321 403.913 368 388 368H292C276.087 368 260.826 374.321 249.574 385.574C247.552 387.595 245.69 389.745 243.995 392.006C228.928 371.949 220 347.017 220 320C220 253.726 273.726 200 340 200C406.274 200 460 253.726 460 320ZM413.456 402.544C415.732 404.82 417.672 407.37 419.243 410.116C398.106 428.718 370.37 440 340 440C309.63 440 281.894 428.718 260.757 410.116C262.328 407.37 264.268 404.82 266.544 402.544C273.295 395.793 282.452 392 292 392H388C397.548 392 406.705 395.793 413.456 402.544ZM304 284C304 264.118 320.118 248 340 248C359.882 248 376 264.118 376 284C376 303.882 359.882 320 340 320C320.118 320 304 303.882 304 284ZM340 224C306.863 224 280 250.863 280 284C280 317.137 306.863 344 340 344C373.137 344 400 317.137 400 284C400 250.863 373.137 224 340 224Z" fill="#CEE0FD"/>
<path fill-rule="evenodd" clip-rule="evenodd" d="M700 320C700 347.017 691.072 371.949 676.005 392.006C674.31 389.745 672.448 387.595 670.426 385.574C659.174 374.321 643.913 368 628 368H532C516.087 368 500.826 374.321 489.574 385.574C487.552 387.595 485.69 389.745 483.995 392.006C468.928 371.949 460 347.017 460 320C460 253.726 513.726 200 580 200C646.274 200 700 253.726 700 320ZM653.456 402.544C655.732 404.82 657.672 407.37 659.243 410.116C638.106 428.718 610.37 440 580 440C549.63 440 521.894 428.718 500.757 410.116C502.328 407.37 504.268 404.82 506.544 402.544C513.295 395.793 522.452 392 532 392H628C637.548 392 646.705 395.793 653.456 402.544ZM544 284C544 264.118 560.118 248 580 248C599.882 248 616 264.118 616 284C616 303.882 599.882 320 580 320C560.118 320 544 303.882 544 284ZM580 224C546.863 224 520 250.863 520 284C520 317.137 546.863 344 580 344C613.137 344 640 317.137 640 284C640 250.863 613.137 224 580 224Z" fill="#CEE0FD"/>
<path d="M176.667 457.318H83.3333C75.9695 457.318 70 463.316 70 470.715V517.603C70 525.002 75.9695 531 83.3333 531H176.667C184.03 531 190 525.002 190 517.603V470.715C190 463.316 184.03 457.318 176.667 457.318Z" stroke="#6DA1FA" stroke-width="10" stroke-linecap="round" stroke-linejoin="round"/>
<path d="M96.6668 457.319V430.525C96.6585 422.22 99.722 414.207 105.263 408.044C110.803 401.88 118.426 398.004 126.65 397.17C134.875 396.335 143.114 398.6 149.77 403.527C156.425 408.453 161.022 415.688 162.667 423.827" stroke="#6DA1FA" stroke-width="10" stroke-linecap="round" stroke-linejoin="round"/>
<circle cx="130" cy="494" r="10" fill="#6DA1FA"/>
<circle cx="460" cy="320" r="120" fill="white"/>
<path fill-rule="evenodd" clip-rule="evenodd" d="M580 320C580 347.017 571.072 371.949 556.005 392.006C554.31 389.745 552.448 387.595 550.426 385.574C539.174 374.321 523.913 368 508 368H412C396.087 368 380.826 374.321 369.574 385.574C367.552 387.595 365.69 389.745 363.995 392.006C348.928 371.949 340 347.017 340 320C340 253.726 393.726 200 460 200C526.274 200 580 253.726 580 320ZM533.456 402.544C535.732 404.82 537.672 407.37 539.243 410.116C518.106 428.718 490.37 440 460 440C429.63 440 401.894 428.718 380.757 410.116C382.328 407.37 384.268 404.82 386.544 402.544C393.295 395.793 402.452 392 412 392H508C517.548 392 526.705 395.793 533.456 402.544ZM424 284C424 264.118 440.118 248 460 248C479.882 248 496 264.118 496 284C496 303.882 479.882 320 460 320C440.118 320 424 303.882 424 284ZM460 224C426.863 224 400 250.863 400 284C400 317.137 426.863 344 460 344C493.137 344 520 317.137 520 284C520 250.863 493.137 224 460 224Z" fill="#6DA1FA"/>
</svg>
