<svg width="24" height="24" viewBox="0 0 24 24" fill="currentColor" xmlns="http://www.w3.org/2000/svg">
    <path fill-rule="evenodd" clip-rule="evenodd" d="M12 5.15091C11.0791 5.65939 8.99438 6.73564 7 7.22006V10.4001C7 12.2392 7.37152 13.8213 8.19639 15.2156C8.97835 16.5373 10.2053 17.7537 12.0429 18.8666C15.4182 17.1139 17 13.9118 17 10.4001V7.22006C15.0056 6.73564 12.9209 5.65939 12 5.15091ZM11.3467 3.22363C11.7514 2.99089 12.2486 2.99089 12.6533 3.22363C13.3203 3.6072 15.8408 4.99038 17.9261 5.374C18.5273 5.48458 19 6.00796 19 6.65847V10.4001C19 14.6837 16.967 18.7494 12.5688 20.8382C12.1807 21.0225 11.73 20.9996 11.3659 20.7895C9.12479 19.4965 7.51632 17.994 6.47507 16.2339C5.43184 14.4706 5 12.5197 5 10.4001V6.65847C5 6.00796 5.47273 5.48458 6.07387 5.374C8.15924 4.99038 10.6797 3.6072 11.3467 3.22363Z" fill="currentColor"/>
</svg>