<svg width="24" height="24" viewBox="0 0 24 24" fill="none" xmlns="http://www.w3.org/2000/svg"><path fill-rule="evenodd" clip-rule="evenodd" d="M5.07746 6.37274C5.02742 6.51068 5 6.65999 5 6.81668V10.5583C5 12.6779 5.43184 14.6288 6.47507 16.3921C7.51632 18.1522 9.12479 19.6547 11.3659 20.9477C11.73 21.1578 12.1807 21.1807 12.5688 20.9964C14.2361 20.2045 15.5635 19.1286 16.5691 17.8644L15.1429 16.4382C14.3646 17.4702 13.3352 18.3537 12.0429 19.0248C10.2053 17.9119 8.97835 16.6955 8.19639 15.3738C7.37152 13.9795 7 12.3974 7 10.5583V8.29528L5.07746 6.37274ZM16.6412 13.3449C16.8819 12.4547 17 11.5181 17 10.5583V7.37826C15.0056 6.89384 12.9209 5.81759 12 5.30911C11.5093 5.58005 10.6882 6.01217 9.72643 6.43008L8.19524 4.89889C9.61907 4.34555 10.8995 3.63901 11.3467 3.38183C11.7514 3.14909 12.2486 3.14909 12.6533 3.38183C13.3203 3.7654 15.8408 5.14858 17.9261 5.5322C18.5273 5.64278 19 6.16616 19 6.81667V10.5583C19 12.0686 18.7473 13.5518 18.2272 14.9309L16.6412 13.3449Z" fill="#000000"/><rect x="3.50781" y="4.82104" width="2.10144" height="21.0226" rx="1.05072" transform="rotate(-45 3.50781 4.82104)" fill="#000000"/></svg>