<svg width="17" height="16" viewBox="0 0 17 16" fill="currentColor" stroke="none" xmlns="http://www.w3.org/2000/svg">
<path fill-rule="evenodd" clip-rule="evenodd" d="M16 0C16.5523 0 17 0.447715 17 1V15C17 15.5523 16.5523 16 16 16C15.4477 16 15 15.5523 15 15V1C15 0.447715 15.4477 0 16 0Z"/>
<path fill-rule="evenodd" clip-rule="evenodd" d="M2 8C2 7.44772 2.44772 7 3 7H12C12.5523 7 13 7.44772 13 8C13 8.55228 12.5523 9 12 9H3C2.44772 9 2 8.55228 2 8Z"/>
<path fill-rule="evenodd" clip-rule="evenodd" d="M6.25596 4.29296C6.64659 4.68338 6.64677 5.31654 6.25635 5.70717L3.25709 8.70812C2.86668 9.09875 2.23351 9.09893 1.84288 8.70852C1.45224 8.3181 1.45207 7.68494 1.84248 7.2943L4.84174 4.29336C5.23216 3.90272 5.86532 3.90255 6.25596 4.29296Z"/>
<path fill-rule="evenodd" clip-rule="evenodd" d="M1.84172 7.29304C2.23225 6.90252 2.86541 6.90252 3.25593 7.29304L6.25594 10.293C6.64646 10.6836 6.64646 11.3167 6.25594 11.7073C5.86541 12.0978 5.23225 12.0978 4.84172 11.7073L1.84172 8.70726C1.4512 8.31673 1.4512 7.68357 1.84172 7.29304Z"/>
</svg>
