<svg width="20" height="20" viewBox="0 0 20 20" fill="none" xmlns="http://www.w3.org/2000/svg">
<path fill-rule="evenodd" clip-rule="evenodd" d="M20 10C20 12.2514 19.256 14.3291 18.0004 16.0005C17.8591 15.8121 17.704 15.6329 17.5355 15.4645C16.5979 14.5268 15.3261 14 14 14H6C4.67392 14 3.40215 14.5268 2.46447 15.4645C2.29604 15.6329 2.14086 15.8121 1.99962 16.0005C0.74403 14.3291 0 12.2514 0 10C0 4.47715 4.47715 0 10 0C15.5228 0 20 4.47715 20 10ZM16.1213 16.8787C16.311 17.0684 16.4727 17.2808 16.6036 17.5096C14.8422 19.0598 12.5309 20 10 20C7.46913 20 5.15785 19.0598 3.39638 17.5096C3.52735 17.2808 3.689 17.0684 3.87868 16.8787C4.44129 16.3161 5.20435 16 6 16H14C14.7956 16 15.5587 16.3161 16.1213 16.8787ZM7 7C7 5.34315 8.34315 4 10 4C11.6569 4 13 5.34315 13 7C13 8.65685 11.6569 10 10 10C8.34315 10 7 8.65685 7 7ZM10 2C7.23858 2 5 4.23858 5 7C5 9.76142 7.23858 12 10 12C12.7614 12 15 9.76142 15 7C15 4.23858 12.7614 2 10 2Z" fill="#00AD6E"/>
</svg>
