<svg width="16" height="10" viewBox="0 0 16 10" fill="currentColor" xmlns="http://www.w3.org/2000/svg">
<path fill-rule="evenodd" clip-rule="evenodd" d="M16 9C16 9.55228 15.5523 10 15 10L1 10C0.447715 10 0 9.55228 0 9C0 8.44772 0.447715 8 1 8L15 8C15.5523 8 16 8.44772 16 9Z"/>
<path fill-rule="evenodd" clip-rule="evenodd" d="M12 5C12 5.55228 11.5523 6 11 6L1 6C0.447715 6 0 5.55228 0 5C0 4.44772 0.447715 4 1 4L11 4C11.5523 4 12 4.44772 12 5Z"/>
<path fill-rule="evenodd" clip-rule="evenodd" d="M8 1C8 1.55228 7.55228 2 7 2L1 2C0.447715 2 0 1.55228 0 1C0 0.447715 0.447715 0 1 0L7 0C7.55228 0 8 0.447715 8 1Z"/>
</svg>
