<svg width="16" height="10" viewBox="0 0 16 10" fill="currentColor" xmlns="http://www.w3.org/2000/svg">
<path fill-rule="evenodd" clip-rule="evenodd" d="M0 1C0 0.447715 0.447715 0 1 0H15C15.5523 0 16 0.447715 16 1C16 1.55228 15.5523 2 15 2H1C0.447715 2 0 1.55228 0 1Z"/>
<path fill-rule="evenodd" clip-rule="evenodd" d="M0 5C0 4.44772 0.447715 4 1 4H11C11.5523 4 12 4.44772 12 5C12 5.55228 11.5523 6 11 6H1C0.447715 6 0 5.55228 0 5Z"/>
<path fill-rule="evenodd" clip-rule="evenodd" d="M0 9C0 8.44772 0.447715 8 1 8H7C7.55228 8 8 8.44772 8 9C8 9.55228 7.55228 10 7 10H1C0.447715 10 0 9.55228 0 9Z"/>
</svg>
