<svg width="16" height="16" viewBox="0 0 16 16" fill="currentColor" stroke="none" xmlns="http://www.w3.org/2000/svg">
<path fill-rule="evenodd" clip-rule="evenodd" d="M0.888889 0C0.397969 0 0 0.397969 0 0.888889V5.7931C0 6.28402 0.397969 6.68199 0.888889 6.68199C1.37981 6.68199 1.77778 6.28402 1.77778 5.7931V1.77778H5.7931C6.28402 1.77778 6.68199 1.37981 6.68199 0.888889C6.68199 0.397969 6.28402 0 5.7931 0H0.888889ZM16 0.888889C16 0.397969 15.602 0 15.1111 0H10.2069C9.71598 0 9.31801 0.397969 9.31801 0.888889C9.31801 1.37981 9.71598 1.77778 10.2069 1.77778L14.2222 1.77778V5.7931C14.2222 6.28402 14.6202 6.68199 15.1111 6.68199C15.602 6.68199 16 6.28402 16 5.7931V0.888889ZM16 15.1111C16 15.602 15.602 16 15.1111 16H10.2069C9.71598 16 9.31801 15.602 9.31801 15.1111C9.31801 14.6202 9.71598 14.2222 10.2069 14.2222L14.2222 14.2222V10.2069C14.2222 9.71598 14.6202 9.31801 15.1111 9.31801C15.602 9.31801 16 9.71598 16 10.2069V15.1111ZM0 15.1111C0 15.602 0.397969 16 0.888889 16H5.7931C6.28402 16 6.68199 15.602 6.68199 15.1111C6.68199 14.6202 6.28402 14.2222 5.7931 14.2222H1.77778L1.77778 10.2069C1.77778 9.71598 1.37981 9.31801 0.88889 9.31801C0.39797 9.31801 0 9.71598 0 10.2069V15.1111Z"/>
</svg>
