<svg width="18" height="18" viewBox="0 0 18 18" fill="currentColor" xmlns="http://www.w3.org/2000/svg">
<path fill-rule="evenodd" clip-rule="evenodd" d="M1 0C0.447715 0 0 0.447715 0 1V6.51724C0 7.06953 0.447715 7.51724 1 7.51724C1.55228 7.51724 2 7.06953 2 6.51724V2H6.51724C7.06953 2 7.51724 1.55228 7.51724 1C7.51724 0.447715 7.06953 0 6.51724 0H1ZM18 1C18 0.447715 17.5523 0 17 0H11.4828C10.9305 0 10.4828 0.447715 10.4828 1C10.4828 1.55228 10.9305 2 11.4828 2L16 2V6.51724C16 7.06953 16.4477 7.51724 17 7.51724C17.5523 7.51724 18 7.06953 18 6.51724V1ZM18 17C18 17.5523 17.5523 18 17 18H11.4828C10.9305 18 10.4828 17.5523 10.4828 17C10.4828 16.4477 10.9305 16 11.4828 16L16 16V11.4828C16 10.9305 16.4477 10.4828 17 10.4828C17.5523 10.4828 18 10.9305 18 11.4828V17ZM0 17C0 17.5523 0.447715 18 1 18H6.51724C7.06953 18 7.51724 17.5523 7.51724 17C7.51724 16.4477 7.06953 16 6.51724 16H2L2 11.4828C2 10.9305 1.55229 10.4828 1 10.4828C0.447716 10.4828 0 10.9305 0 11.4828V17Z"/>
</svg>
