<svg viewBox="0 0 12 16" fill="none" stroke="currentColor" xmlns="http://www.w3.org/2000/svg">
<path d="M11 9.6C11 12.6441 8.70161 15 6 15C3.29839 15 1 12.6441 1 9.6C1 8.96329 1.28264 8.09722 1.82187 7.07563C2.34828 6.07831 3.06194 5.0381 3.79386 4.08263C4.52303 3.13073 5.25465 2.28317 5.80519 1.67259C5.87307 1.5973 5.93812 1.5257 6 1.45803C6.06188 1.5257 6.12694 1.5973 6.19482 1.67259C6.74535 2.28317 7.47698 3.13073 8.20615 4.08263C8.93806 5.0381 9.65172 6.07831 10.1781 7.07563C10.7174 8.09722 11 8.96329 11 9.6Z" stroke-width="2"/>
</svg>
