<svg width="10" height="10" viewBox="0 0 10 10" fill="currentColor" stroke="none" xmlns="http://www.w3.org/2000/svg">
<path d="M9.88182 0.118314C9.72407 -0.039438 9.46831 -0.039438 9.31056 0.118314L0.118558 9.3103C-0.0391939 9.46805 -0.0391939 9.72381 0.118558 9.88156C0.197424 9.96046 0.300822 9.99988 0.404199 9.99988C0.507577 9.99988 0.610955 9.96045 0.68984 9.88154L9.88182 0.689557C10.0396 0.531825 10.0396 0.276066 9.88182 0.118314Z"/>
<path d="M9.88156 9.31028L0.689557 0.118314C0.531825 -0.039438 0.276047 -0.039438 0.118314 0.118314C-0.039438 0.276046 -0.039438 0.531805 0.118314 0.689556L9.31032 9.88155C9.38918 9.96043 9.49258 9.99986 9.59596 9.99986C9.69933 9.99986 9.80273 9.96043 9.88158 9.88157C10.0393 9.72379 10.0393 9.46804 9.88156 9.31028Z"/>
</svg>
