<svg width="16" height="16" viewBox="0 0 16 16" fill="currentColor" xmlns="http://www.w3.org/2000/svg">
<g opacity="0.4">
<path d="M15.8108 0.189302C15.5584 -0.0631008 15.1492 -0.0631008 14.8967 0.189302L0.189547 14.8965C-0.0628567 15.1489 -0.0628567 15.5581 0.189547 15.8105C0.315733 15.9367 0.481168 15.9998 0.646573 15.9998C0.811977 15.9998 0.977381 15.9367 1.1036 15.8105L15.8108 1.10329C16.0631 0.85092 16.0631 0.441706 15.8108 0.189302Z"/>
<path d="M15.8105 14.8965L1.10329 0.189302C0.85092 -0.0631007 0.441675 -0.0631007 0.189302 0.189302C-0.0631008 0.441674 -0.0631008 0.850887 0.189302 1.10329L14.8965 15.8105C15.0227 15.9367 15.1881 15.9998 15.3535 15.9998C15.5189 15.9998 15.6844 15.9367 15.8105 15.8105C16.0629 15.5581 16.0629 15.1489 15.8105 14.8965Z"/>
</g>
</svg>
