<svg width="16" height="16" viewBox="0 0 16 16" fill="inherit" xmlns="http://www.w3.org/2000/svg">
<path d="M5.4 3.8C4.6268 3.8 4 3.1732 4 2.4C4 1.6268 4.6268 1 5.4 1C6.1732 1 6.8 1.6268 6.8 2.4C6.8 3.1732 6.1732 3.8 5.4 3.8ZM5.4 9.4C4.6268 9.4 4 8.7732 4 8C4 7.2268 4.6268 6.6 5.4 6.6C6.1732 6.6 6.8 7.2268 6.8 8C6.8 8.7732 6.1732 9.4 5.4 9.4ZM5.4 15C4.6268 15 4 14.3732 4 13.6C4 12.8268 4.6268 12.2 5.4 12.2C6.1732 12.2 6.8 12.8268 6.8 13.6C6.8 14.3732 6.1732 15 5.4 15ZM11 3.8C10.2268 3.8 9.6 3.1732 9.6 2.4C9.6 1.6268 10.2268 1 11 1C11.7732 1 12.4 1.6268 12.4 2.4C12.4 3.1732 11.7732 3.8 11 3.8ZM11 9.4C10.2268 9.4 9.6 8.7732 9.6 8C9.6 7.2268 10.2268 6.6 11 6.6C11.7732 6.6 12.4 7.2268 12.4 8C12.4 8.7732 11.7732 9.4 11 9.4ZM11 15C10.2268 15 9.6 14.3732 9.6 13.6C9.6 12.8268 10.2268 12.2 11 12.2C11.7732 12.2 12.4 12.8268 12.4 13.6C12.4 14.3732 11.7732 15 11 15Z"/>
</svg>
