<svg width="22" height="44" viewBox="0 0 22 44" fill="currentColor" xmlns="http://www.w3.org/2000/svg">
<path fill-rule="evenodd" clip-rule="evenodd" d="M7.0501 14.564C7.0501 11.715 7.42943 9.33857 8.79183 7.38098C10.9394 4.2969 13.7687 4.57405 17.0068 4.57405V23.3456H14.3219C9.26223 23.3456 7.0501 19.5486 7.0501 14.564ZM1.90407 13.2467C1.90407 16.601 2.01857 19.1637 3.72923 21.9943C4.89311 23.9213 6.33308 25.079 8.28091 26.0903C8.24216 26.5426 1.46479 40.8804 0.598625 42.7026C0.451238 43.0126 0.18225 43.5871 0.114136 43.874H5.70761C5.74583 43.424 6.40413 42.2145 6.58733 41.7725L8.4401 37.6632C8.74779 36.936 9.04614 36.3413 9.36733 35.6094L11.226 31.5054C11.5771 30.7666 12.9524 27.8813 13.0911 27.2975H17.0068V43.874H21.8169V0.512622C18.0761 0.512622 12.7399 0.156472 9.59052 1.46803C4.68466 3.51142 1.90407 8.09783 1.90407 13.2467Z"/>
</svg>
